solid 
 facet normal  1.000000e+00  0.000000e+00  0.000000e+00
   outer loop
     vertex  4.947368e-01  7.500000e-01  0.000000e+00
     vertex  4.947368e-01 -7.500000e-01  2.187500e-01
     vertex  4.947368e-01 -7.500000e-01  0.000000e+00
   endloop
 endfacet
 facet normal  1.000000e+00  0.000000e+00 -0.000000e+00
   outer loop
     vertex  4.947368e-01  7.500000e-01  0.000000e+00
     vertex  4.947368e-01  7.500000e-01  2.187500e-01
     vertex  4.947368e-01 -7.500000e-01  2.187500e-01
   endloop
 endfacet
 facet normal  0.000000e+00  1.000000e+00  0.000000e+00
   outer loop
     vertex -5.000000e-01  7.500000e-01  0.000000e+00
     vertex  4.947368e-01  7.500000e-01  2.187500e-01
     vertex  4.947368e-01  7.500000e-01  0.000000e+00
   endloop
 endfacet
 facet normal  0.000000e+00  1.000000e+00  0.000000e+00
   outer loop
     vertex -5.000000e-01  7.500000e-01  0.000000e+00
     vertex -5.000000e-01  7.500000e-01  2.187500e-01
     vertex  4.947368e-01  7.500000e-01  2.187500e-01
   endloop
 endfacet
 facet normal -1.000000e+00  0.000000e+00  0.000000e+00
   outer loop
     vertex -5.000000e-01 -7.500000e-01  0.000000e+00
     vertex -5.000000e-01  7.500000e-01  2.187500e-01
     vertex -5.000000e-01  7.500000e-01  0.000000e+00
   endloop
 endfacet
 facet normal -1.000000e+00  0.000000e+00  0.000000e+00
   outer loop
     vertex -5.000000e-01 -7.500000e-01  0.000000e+00
     vertex -5.000000e-01 -7.500000e-01  2.187500e-01
     vertex -5.000000e-01  7.500000e-01  2.187500e-01
   endloop
 endfacet
 facet normal  0.000000e+00 -1.000000e+00  0.000000e+00
   outer loop
     vertex  4.947368e-01 -7.500000e-01  0.000000e+00
     vertex -5.000000e-01 -7.500000e-01  2.187500e-01
     vertex -5.000000e-01 -7.500000e-01  0.000000e+00
   endloop
 endfacet
 facet normal  0.000000e+00 -1.000000e+00  0.000000e+00
   outer loop
     vertex  4.947368e-01 -7.500000e-01  0.000000e+00
     vertex  4.947368e-01 -7.500000e-01  2.187500e-01
     vertex -5.000000e-01 -7.500000e-01  2.187500e-01
   endloop
 endfacet
 facet normal  1.000000e+00  0.000000e+00  0.000000e+00
   outer loop
     vertex -2.789474e-01 -5.289474e-01  0.000000e+00
     vertex -2.789474e-01  5.289474e-01  0.000000e+00
     vertex -2.789474e-01  5.289474e-01  2.187500e-01
   endloop
 endfacet
 facet normal  1.000000e+00  0.000000e+00  0.000000e+00
   outer loop
     vertex -2.789474e-01 -5.289474e-01  0.000000e+00
     vertex -2.789474e-01  5.289474e-01  2.187500e-01
     vertex -2.789474e-01 -5.289474e-01  2.187500e-01
   endloop
 endfacet
 facet normal  0.000000e+00 -1.000000e+00  0.000000e+00
   outer loop
     vertex -2.789474e-01  5.289474e-01  0.000000e+00
     vertex  2.894737e-01  5.289474e-01  0.000000e+00
     vertex  2.894737e-01  5.289474e-01  2.187500e-01
   endloop
 endfacet
 facet normal  0.000000e+00 -1.000000e+00  0.000000e+00
   outer loop
     vertex -2.789474e-01  5.289474e-01  0.000000e+00
     vertex  2.894737e-01  5.289474e-01  2.187500e-01
     vertex -2.789474e-01  5.289474e-01  2.187500e-01
   endloop
 endfacet
 facet normal -1.000000e+00  0.000000e+00  0.000000e+00
   outer loop
     vertex  2.894737e-01  5.289474e-01  0.000000e+00
     vertex  2.894737e-01 -5.289474e-01  0.000000e+00
     vertex  2.894737e-01 -5.289474e-01  2.187500e-01
   endloop
 endfacet
 facet normal -1.000000e+00  0.000000e+00  0.000000e+00
   outer loop
     vertex  2.894737e-01  5.289474e-01  0.000000e+00
     vertex  2.894737e-01 -5.289474e-01  2.187500e-01
     vertex  2.894737e-01  5.289474e-01  2.187500e-01
   endloop
 endfacet
 facet normal  0.000000e+00  1.000000e+00  0.000000e+00
   outer loop
     vertex  2.894737e-01 -5.289474e-01  0.000000e+00
     vertex -2.789474e-01 -5.289474e-01  0.000000e+00
     vertex -2.789474e-01 -5.289474e-01  2.187500e-01
   endloop
 endfacet
 facet normal  0.000000e+00  1.000000e+00 -0.000000e+00
   outer loop
     vertex  2.894737e-01 -5.289474e-01  0.000000e+00
     vertex -2.789474e-01 -5.289474e-01  2.187500e-01
     vertex  2.894737e-01 -5.289474e-01  2.187500e-01
   endloop
 endfacet
 facet normal  0.000000e+00  0.000000e+00 -1.000000e+00
   outer loop
     vertex  4.947368e-01 -7.500000e-01  0.000000e+00
     vertex -5.000000e-01 -7.500000e-01  0.000000e+00
     vertex -2.789474e-01 -5.289474e-01  0.000000e+00
   endloop
 endfacet
 facet normal -0.000000e+00 -0.000000e+00 -1.000000e+00
   outer loop
     vertex  2.894737e-01 -5.289474e-01  0.000000e+00
     vertex  4.947368e-01 -7.500000e-01  0.000000e+00
     vertex -2.789474e-01 -5.289474e-01  0.000000e+00
   endloop
 endfacet
 facet normal  0.000000e+00  0.000000e+00 -1.000000e+00
   outer loop
     vertex -5.000000e-01  7.500000e-01  0.000000e+00
     vertex -2.789474e-01  5.289474e-01  0.000000e+00
     vertex -2.789474e-01 -5.289474e-01  0.000000e+00
   endloop
 endfacet
 facet normal  0.000000e+00  0.000000e+00 -1.000000e+00
   outer loop
     vertex -5.000000e-01  7.500000e-01  0.000000e+00
     vertex -2.789474e-01 -5.289474e-01  0.000000e+00
     vertex -5.000000e-01 -7.500000e-01  0.000000e+00
   endloop
 endfacet
 facet normal  0.000000e+00  0.000000e+00 -1.000000e+00
   outer loop
     vertex  4.947368e-01  7.500000e-01  0.000000e+00
     vertex  2.894737e-01  5.289474e-01  0.000000e+00
     vertex -2.789474e-01  5.289474e-01  0.000000e+00
   endloop
 endfacet
 facet normal  0.000000e+00  0.000000e+00 -1.000000e+00
   outer loop
     vertex  4.947368e-01  7.500000e-01  0.000000e+00
     vertex  2.894737e-01 -5.289474e-01  0.000000e+00
     vertex  2.894737e-01  5.289474e-01  0.000000e+00
   endloop
 endfacet
 facet normal  0.000000e+00 -0.000000e+00 -1.000000e+00
   outer loop
     vertex  4.947368e-01  7.500000e-01  0.000000e+00
     vertex  4.947368e-01 -7.500000e-01  0.000000e+00
     vertex  2.894737e-01 -5.289474e-01  0.000000e+00
   endloop
 endfacet
 facet normal -0.000000e+00  0.000000e+00 -1.000000e+00
   outer loop
     vertex  4.947368e-01  7.500000e-01  0.000000e+00
     vertex -2.789474e-01  5.289474e-01  0.000000e+00
     vertex -5.000000e-01  7.500000e-01  0.000000e+00
   endloop
 endfacet
 facet normal  0.000000e+00  0.000000e+00  1.000000e+00
   outer loop
     vertex  4.947368e-01 -7.500000e-01  2.187500e-01
     vertex -2.789474e-01 -5.289474e-01  2.187500e-01
     vertex -5.000000e-01 -7.500000e-01  2.187500e-01
   endloop
 endfacet
 facet normal  0.000000e+00  0.000000e+00  1.000000e+00
   outer loop
     vertex  2.894737e-01 -5.289474e-01  2.187500e-01
     vertex -2.789474e-01 -5.289474e-01  2.187500e-01
     vertex  4.947368e-01 -7.500000e-01  2.187500e-01
   endloop
 endfacet
 facet normal  0.000000e+00  0.000000e+00  1.000000e+00
   outer loop
     vertex -5.000000e-01  7.500000e-01  2.187500e-01
     vertex -2.789474e-01 -5.289474e-01  2.187500e-01
     vertex -2.789474e-01  5.289474e-01  2.187500e-01
   endloop
 endfacet
 facet normal  0.000000e+00  0.000000e+00  1.000000e+00
   outer loop
     vertex -5.000000e-01  7.500000e-01  2.187500e-01
     vertex -5.000000e-01 -7.500000e-01  2.187500e-01
     vertex -2.789474e-01 -5.289474e-01  2.187500e-01
   endloop
 endfacet
 facet normal  0.000000e+00  0.000000e+00  1.000000e+00
   outer loop
     vertex  4.947368e-01  7.500000e-01  2.187500e-01
     vertex -2.789474e-01  5.289474e-01  2.187500e-01
     vertex  2.894737e-01  5.289474e-01  2.187500e-01
   endloop
 endfacet
 facet normal  0.000000e+00  0.000000e+00  1.000000e+00
   outer loop
     vertex  4.947368e-01  7.500000e-01  2.187500e-01
     vertex  2.894737e-01  5.289474e-01  2.187500e-01
     vertex  2.894737e-01 -5.289474e-01  2.187500e-01
   endloop
 endfacet
 facet normal  0.000000e+00  0.000000e+00  1.000000e+00
   outer loop
     vertex  4.947368e-01  7.500000e-01  2.187500e-01
     vertex  2.894737e-01 -5.289474e-01  2.187500e-01
     vertex  4.947368e-01 -7.500000e-01  2.187500e-01
   endloop
 endfacet
 facet normal  0.000000e+00  0.000000e+00  1.000000e+00
   outer loop
     vertex  4.947368e-01  7.500000e-01  2.187500e-01
     vertex -5.000000e-01  7.500000e-01  2.187500e-01
     vertex -2.789474e-01  5.289474e-01  2.187500e-01
   endloop
 endfacet
endsolid
