solid 
 facet normal  1.000000e+00  0.000000e+00  0.000000e+00
   outer loop
     vertex  7.500000e-01  6.139348e-17  2.526316e-01
     vertex  7.500000e-01  4.592425e-17 -4.592425e-17
     vertex  7.500000e-01  2.500000e-01 -6.123234e-17
   endloop
 endfacet
 facet normal  1.000000e+00 -0.000000e+00  0.000000e+00
   outer loop
     vertex  7.500000e-01  6.139348e-17  2.526316e-01
     vertex  7.500000e-01  2.500000e-01 -6.123234e-17
     vertex  7.500000e-01  2.500000e-01  2.526316e-01
   endloop
 endfacet
 facet normal -6.123234e-17 -6.123234e-17 -1.000000e+00
   outer loop
     vertex  7.500000e-01  4.592425e-17 -4.592425e-17
     vertex -1.530808e-17  2.500000e-01 -1.530808e-17
     vertex  7.500000e-01  2.500000e-01 -6.123234e-17
   endloop
 endfacet
 facet normal -6.123234e-17 -6.123234e-17 -1.000000e+00
   outer loop
     vertex  7.500000e-01  4.592425e-17 -4.592425e-17
     vertex  1.530808e-17 -2.500000e-01  1.530808e-17
     vertex -1.530808e-17  2.500000e-01 -1.530808e-17
   endloop
 endfacet
 facet normal -6.123234e-17 -6.123234e-17 -1.000000e+00
   outer loop
     vertex  7.500000e-01 -2.500000e-01 -3.061617e-17
     vertex  1.530808e-17 -2.500000e-01  1.530808e-17
     vertex  7.500000e-01  4.592425e-17 -4.592425e-17
   endloop
 endfacet
 facet normal  1.496045e-16  0.000000e+00  1.000000e+00
   outer loop
     vertex  3.789474e-01  3.867306e-17  2.526316e-01
     vertex  7.500000e-01  6.139348e-17  2.526316e-01
     vertex  7.500000e-01  2.500000e-01  2.526316e-01
   endloop
 endfacet
 facet normal  1.496045e-16 -0.000000e+00  1.000000e+00
   outer loop
     vertex  3.789474e-01  3.867306e-17  2.526316e-01
     vertex  7.500000e-01  2.500000e-01  2.526316e-01
     vertex  3.789474e-01  2.500000e-01  2.526316e-01
   endloop
 endfacet
 facet normal  6.123234e-17 -1.000000e+00  6.123234e-17
   outer loop
     vertex  3.789474e-01  3.867306e-17  2.526316e-01
     vertex  3.789474e-01  5.365887e-17  4.973684e-01
     vertex  3.045503e-17  3.045503e-17  4.973684e-01
   endloop
 endfacet
 facet normal  6.123234e-17 -1.000000e+00  6.123234e-17
   outer loop
     vertex  7.500000e-01  4.592425e-17 -4.592425e-17
     vertex  7.500000e-01  6.139348e-17  2.526316e-01
     vertex  3.789474e-01  3.867306e-17  2.526316e-01
   endloop
 endfacet
 facet normal  6.123234e-17 -1.000000e+00  6.123234e-17
   outer loop
     vertex  3.045503e-17  3.045503e-17  4.973684e-01
     vertex  7.500000e-01  4.592425e-17 -4.592425e-17
     vertex  3.789474e-01  3.867306e-17  2.526316e-01
   endloop
 endfacet
 facet normal  0.000000e+00  1.000000e+00 -0.000000e+00
   outer loop
     vertex  3.789474e-01  2.500000e-01  2.526316e-01
     vertex  1.514695e-17  2.500000e-01  4.973684e-01
     vertex  3.789474e-01  2.500000e-01  4.973684e-01
   endloop
 endfacet
 facet normal -7.208128e-17  1.000000e+00 -1.116097e-16
   outer loop
     vertex  3.789474e-01  2.500000e-01  2.526316e-01
     vertex -1.530808e-17  2.500000e-01 -1.530808e-17
     vertex  1.514695e-17  2.500000e-01  4.973684e-01
   endloop
 endfacet
 facet normal  0.000000e+00  1.000000e+00 -0.000000e+00
   outer loop
     vertex  7.500000e-01  2.500000e-01 -6.123234e-17
     vertex  3.789474e-01  2.500000e-01  2.526316e-01
     vertex  7.500000e-01  2.500000e-01  2.526316e-01
   endloop
 endfacet
 facet normal -7.401487e-17  1.000000e+00 -1.087093e-16
   outer loop
     vertex  7.500000e-01  2.500000e-01 -6.123234e-17
     vertex -1.530808e-17  2.500000e-01 -1.530808e-17
     vertex  3.789474e-01  2.500000e-01  2.526316e-01
   endloop
 endfacet
 facet normal -1.000000e+00 -6.123234e-17  6.123234e-17
   outer loop
     vertex -1.530808e-17  2.500000e-01 -1.530808e-17
     vertex  3.045503e-17  3.045503e-17  4.973684e-01
     vertex  1.514695e-17  2.500000e-01  4.973684e-01
   endloop
 endfacet
 facet normal -1.000000e+00 -6.123234e-17  6.123234e-17
   outer loop
     vertex  1.530808e-17 -2.500000e-01  1.530808e-17
     vertex  4.576312e-17 -2.500000e-01  4.973684e-01
     vertex  3.045503e-17  3.045503e-17  4.973684e-01
   endloop
 endfacet
 facet normal -1.000000e+00 -6.123234e-17  6.123234e-17
   outer loop
     vertex  1.530808e-17 -2.500000e-01  1.530808e-17
     vertex  3.045503e-17  3.045503e-17  4.973684e-01
     vertex -1.530808e-17  2.500000e-01 -1.530808e-17
   endloop
 endfacet
 facet normal  1.000000e+00  0.000000e+00 -2.268198e-16
   outer loop
     vertex  3.789474e-01  5.365887e-17  4.973684e-01
     vertex  3.789474e-01  3.867306e-17  2.526316e-01
     vertex  3.789474e-01  2.500000e-01  2.526316e-01
   endloop
 endfacet
 facet normal  1.000000e+00  0.000000e+00 -2.268198e-16
   outer loop
     vertex  3.789474e-01  5.365887e-17  4.973684e-01
     vertex  3.789474e-01  2.500000e-01  2.526316e-01
     vertex  3.789474e-01  2.500000e-01  4.973684e-01
   endloop
 endfacet
 facet normal  5.526741e-01  0.000000e+00  8.333975e-01
   outer loop
     vertex  3.045503e-17  3.045503e-17  4.973684e-01
     vertex  7.500000e-01 -2.500000e-01 -3.061617e-17
     vertex  7.500000e-01  4.592425e-17 -4.592425e-17
   endloop
 endfacet
 facet normal  5.526741e-01  3.384153e-17  8.333975e-01
   outer loop
     vertex  3.045503e-17  3.045503e-17  4.973684e-01
     vertex  4.576312e-17 -2.500000e-01  4.973684e-01
     vertex  7.500000e-01 -2.500000e-01 -3.061617e-17
   endloop
 endfacet
 facet normal -1.464878e-16  0.000000e+00  1.000000e+00
   outer loop
     vertex  3.045503e-17  3.045503e-17  4.973684e-01
     vertex  3.789474e-01  5.365887e-17  4.973684e-01
     vertex  3.789474e-01  2.500000e-01  4.973684e-01
   endloop
 endfacet
 facet normal  0.000000e+00 -2.220446e-16  1.000000e+00
   outer loop
     vertex  3.045503e-17  3.045503e-17  4.973684e-01
     vertex  3.789474e-01  2.500000e-01  4.973684e-01
     vertex  1.514695e-17  2.500000e-01  4.973684e-01
   endloop
 endfacet
 facet normal  1.110223e-16 -1.000000e+00  5.580486e-17
   outer loop
     vertex  7.500000e-01 -2.500000e-01 -3.061617e-17
     vertex  4.576312e-17 -2.500000e-01  4.973684e-01
     vertex  1.530808e-17 -2.500000e-01  1.530808e-17
   endloop
 endfacet
endsolid
