solid 
 facet normal  1.000000e+00  0.000000e+00  0.000000e+00
   outer loop
     vertex  4.062500e-01  2.656250e-01  0.000000e+00
     vertex  4.062500e-01 -7.500000e-01  5.078125e-01
     vertex  4.062500e-01 -7.500000e-01  0.000000e+00
   endloop
 endfacet
 facet normal  1.000000e+00  0.000000e+00 -0.000000e+00
   outer loop
     vertex  4.062500e-01  2.656250e-01  0.000000e+00
     vertex  4.062500e-01  2.656250e-01  5.078125e-01
     vertex  4.062500e-01 -7.500000e-01  5.078125e-01
   endloop
 endfacet
 facet normal  0.000000e+00  1.000000e+00  0.000000e+00
   outer loop
     vertex -6.093750e-01  2.656250e-01  0.000000e+00
     vertex  4.062500e-01  2.656250e-01  5.078125e-01
     vertex  4.062500e-01  2.656250e-01  0.000000e+00
   endloop
 endfacet
 facet normal  0.000000e+00  1.000000e+00  0.000000e+00
   outer loop
     vertex -6.093750e-01  2.656250e-01  0.000000e+00
     vertex -6.093750e-01  2.656250e-01  5.078125e-01
     vertex  4.062500e-01  2.656250e-01  5.078125e-01
   endloop
 endfacet
 facet normal -1.000000e+00  0.000000e+00  0.000000e+00
   outer loop
     vertex -6.093750e-01 -7.500000e-01  0.000000e+00
     vertex -6.093750e-01  2.656250e-01  5.078125e-01
     vertex -6.093750e-01  2.656250e-01  0.000000e+00
   endloop
 endfacet
 facet normal -1.000000e+00  0.000000e+00  0.000000e+00
   outer loop
     vertex -6.093750e-01 -7.500000e-01  0.000000e+00
     vertex -6.093750e-01 -7.500000e-01  5.078125e-01
     vertex -6.093750e-01  2.656250e-01  5.078125e-01
   endloop
 endfacet
 facet normal  0.000000e+00 -1.000000e+00  0.000000e+00
   outer loop
     vertex  4.062500e-01 -7.500000e-01  0.000000e+00
     vertex -6.093750e-01 -7.500000e-01  5.078125e-01
     vertex -6.093750e-01 -7.500000e-01  0.000000e+00
   endloop
 endfacet
 facet normal  0.000000e+00 -1.000000e+00  0.000000e+00
   outer loop
     vertex  4.062500e-01 -7.500000e-01  0.000000e+00
     vertex  4.062500e-01 -7.500000e-01  5.078125e-01
     vertex -6.093750e-01 -7.500000e-01  5.078125e-01
   endloop
 endfacet
 facet normal -0.000000e+00  0.000000e+00 -1.000000e+00
   outer loop
     vertex  4.062500e-01  2.656250e-01  0.000000e+00
     vertex -6.093750e-01 -7.500000e-01  0.000000e+00
     vertex -6.093750e-01  2.656250e-01  0.000000e+00
   endloop
 endfacet
 facet normal  0.000000e+00 -0.000000e+00 -1.000000e+00
   outer loop
     vertex  4.062500e-01  2.656250e-01  0.000000e+00
     vertex  4.062500e-01 -7.500000e-01  0.000000e+00
     vertex -6.093750e-01 -7.500000e-01  0.000000e+00
   endloop
 endfacet
 facet normal  0.000000e+00  0.000000e+00  1.000000e+00
   outer loop
     vertex  4.062500e-01  2.656250e-01  5.078125e-01
     vertex -6.093750e-01  2.656250e-01  5.078125e-01
     vertex -6.093750e-01 -7.500000e-01  5.078125e-01
   endloop
 endfacet
 facet normal  0.000000e+00  0.000000e+00  1.000000e+00
   outer loop
     vertex  4.062500e-01  2.656250e-01  5.078125e-01
     vertex -6.093750e-01 -7.500000e-01  5.078125e-01
     vertex  4.062500e-01 -7.500000e-01  5.078125e-01
   endloop
 endfacet
endsolid
