solid 
 facet normal  1.000000e+00  0.000000e+00  0.000000e+00
   outer loop
     vertex  3.125000e-02  5.781250e-01  1.250000e-01
     vertex  3.125000e-02  4.296875e-01  2.500000e-01
     vertex  3.125000e-02  4.296875e-01  0.000000e+00
   endloop
 endfacet
 facet normal  1.000000e+00  0.000000e+00 -0.000000e+00
   outer loop
     vertex  3.125000e-02  5.781250e-01  1.250000e-01
     vertex  3.125000e-02  5.781250e-01  2.500000e-01
     vertex  3.125000e-02  4.296875e-01  2.500000e-01
   endloop
 endfacet
 facet normal  1.000000e+00  0.000000e+00 -0.000000e+00
   outer loop
     vertex  3.125000e-02  7.500000e-01  0.000000e+00
     vertex  3.125000e-02  7.500000e-01  1.250000e-01
     vertex  3.125000e-02  5.781250e-01  1.250000e-01
   endloop
 endfacet
 facet normal  1.000000e+00  0.000000e+00  0.000000e+00
   outer loop
     vertex  3.125000e-02  7.500000e-01  0.000000e+00
     vertex  3.125000e-02  5.781250e-01  1.250000e-01
     vertex  3.125000e-02  4.296875e-01  0.000000e+00
   endloop
 endfacet
 facet normal -0.000000e+00  0.000000e+00 -1.000000e+00
   outer loop
     vertex -2.532417e-01  7.521998e-02  0.000000e+00
     vertex -4.687500e-01  0.000000e+00  0.000000e+00
     vertex -2.607778e-01  8.165641e-02  0.000000e+00
   endloop
 endfacet
 facet normal  0.000000e+00 -0.000000e+00 -1.000000e+00
   outer loop
     vertex -2.672142e-01  8.919251e-02  0.000000e+00
     vertex -2.607778e-01  8.165641e-02  0.000000e+00
     vertex -4.687500e-01  0.000000e+00  0.000000e+00
   endloop
 endfacet
 facet normal -0.000000e+00  0.000000e+00 -1.000000e+00
   outer loop
     vertex -2.447915e-01  7.004169e-02  0.000000e+00
     vertex -4.687500e-01  0.000000e+00  0.000000e+00
     vertex -2.532417e-01  7.521998e-02  0.000000e+00
   endloop
 endfacet
 facet normal  0.000000e+00 -0.000000e+00 -1.000000e+00
   outer loop
     vertex -2.723925e-01  9.764271e-02  0.000000e+00
     vertex -2.672142e-01  8.919251e-02  0.000000e+00
     vertex -4.687500e-01  0.000000e+00  0.000000e+00
   endloop
 endfacet
 facet normal  0.000000e+00 -0.000000e+00 -1.000000e+00
   outer loop
     vertex -2.761851e-01  1.067989e-01  0.000000e+00
     vertex -2.723925e-01  9.764271e-02  0.000000e+00
     vertex -4.687500e-01  0.000000e+00  0.000000e+00
   endloop
 endfacet
 facet normal -0.000000e+00  0.000000e+00 -1.000000e+00
   outer loop
     vertex -2.356353e-01  6.624906e-02  0.000000e+00
     vertex -4.687500e-01  0.000000e+00  0.000000e+00
     vertex -2.447915e-01  7.004169e-02  0.000000e+00
   endloop
 endfacet
 facet normal -0.000000e+00  0.000000e+00 -1.000000e+00
   outer loop
     vertex -2.259985e-01  6.393547e-02  0.000000e+00
     vertex -4.687500e-01  0.000000e+00  0.000000e+00
     vertex -2.356353e-01  6.624906e-02  0.000000e+00
   endloop
 endfacet
 facet normal  0.000000e+00 -0.000000e+00 -1.000000e+00
   outer loop
     vertex -2.784987e-01  1.164357e-01  0.000000e+00
     vertex -2.761851e-01  1.067989e-01  0.000000e+00
     vertex -4.687500e-01  0.000000e+00  0.000000e+00
   endloop
 endfacet
 facet normal -0.000000e+00  0.000000e+00 -1.000000e+00
   outer loop
     vertex -2.161184e-01  6.315789e-02  0.000000e+00
     vertex -4.687500e-01  0.000000e+00  0.000000e+00
     vertex -2.259985e-01  6.393547e-02  0.000000e+00
   endloop
 endfacet
 facet normal  0.000000e+00 -0.000000e+00 -1.000000e+00
   outer loop
     vertex -2.792763e-01  1.263158e-01  0.000000e+00
     vertex -2.784987e-01  1.164357e-01  0.000000e+00
     vertex -4.687500e-01  0.000000e+00  0.000000e+00
   endloop
 endfacet
 facet normal  0.000000e+00  0.000000e+00 -1.000000e+00
   outer loop
     vertex -2.784987e-01  1.361959e-01  0.000000e+00
     vertex -2.792763e-01  1.263158e-01  0.000000e+00
     vertex -4.687500e-01  0.000000e+00  0.000000e+00
   endloop
 endfacet
 facet normal  0.000000e+00  0.000000e+00 -1.000000e+00
   outer loop
     vertex -2.761851e-01  1.458327e-01  0.000000e+00
     vertex -2.784987e-01  1.361959e-01  0.000000e+00
     vertex -4.687500e-01  0.000000e+00  0.000000e+00
   endloop
 endfacet
 facet normal  0.000000e+00  0.000000e+00 -1.000000e+00
   outer loop
     vertex -4.687500e-01  4.236842e-01  0.000000e+00
     vertex -2.761851e-01  1.458327e-01  0.000000e+00
     vertex -4.687500e-01  0.000000e+00  0.000000e+00
   endloop
 endfacet
 facet normal  0.000000e+00  0.000000e+00 -1.000000e+00
   outer loop
     vertex -4.687500e-01  4.236842e-01  0.000000e+00
     vertex -2.672142e-01  1.634391e-01  0.000000e+00
     vertex -2.723925e-01  1.549889e-01  0.000000e+00
   endloop
 endfacet
 facet normal  0.000000e+00  0.000000e+00 -1.000000e+00
   outer loop
     vertex -4.687500e-01  4.236842e-01  0.000000e+00
     vertex -2.723925e-01  1.549889e-01  0.000000e+00
     vertex -2.761851e-01  1.458327e-01  0.000000e+00
   endloop
 endfacet
 facet normal  0.000000e+00  0.000000e+00 -1.000000e+00
   outer loop
     vertex  3.125000e-02  0.000000e+00  0.000000e+00
     vertex -4.687500e-01  0.000000e+00  0.000000e+00
     vertex -2.161184e-01  6.315789e-02  0.000000e+00
   endloop
 endfacet
 facet normal  0.000000e+00  0.000000e+00 -1.000000e+00
   outer loop
     vertex  3.125000e-02  0.000000e+00  0.000000e+00
     vertex -1.529605e-01  1.263158e-01  0.000000e+00
     vertex -1.537381e-01  1.361959e-01  0.000000e+00
   endloop
 endfacet
 facet normal  0.000000e+00  0.000000e+00 -1.000000e+00
   outer loop
     vertex  3.125000e-02  0.000000e+00  0.000000e+00
     vertex -1.537381e-01  1.361959e-01  0.000000e+00
     vertex -1.560517e-01  1.458327e-01  0.000000e+00
   endloop
 endfacet
 facet normal  0.000000e+00  0.000000e+00 -1.000000e+00
   outer loop
     vertex  3.125000e-02  0.000000e+00  0.000000e+00
     vertex -2.161184e-01  6.315789e-02  0.000000e+00
     vertex -2.062383e-01  6.393547e-02  0.000000e+00
   endloop
 endfacet
 facet normal  0.000000e+00  0.000000e+00 -1.000000e+00
   outer loop
     vertex  3.125000e-02  0.000000e+00  0.000000e+00
     vertex -2.062383e-01  6.393547e-02  0.000000e+00
     vertex -1.966016e-01  6.624906e-02  0.000000e+00
   endloop
 endfacet
 facet normal  0.000000e+00  0.000000e+00 -1.000000e+00
   outer loop
     vertex  3.125000e-02  0.000000e+00  0.000000e+00
     vertex -1.966016e-01  6.624906e-02  0.000000e+00
     vertex -1.874453e-01  7.004169e-02  0.000000e+00
   endloop
 endfacet
 facet normal  0.000000e+00  0.000000e+00 -1.000000e+00
   outer loop
     vertex  3.125000e-02  0.000000e+00  0.000000e+00
     vertex -1.874453e-01  7.004169e-02  0.000000e+00
     vertex -1.789951e-01  7.521998e-02  0.000000e+00
   endloop
 endfacet
 facet normal  0.000000e+00  0.000000e+00 -1.000000e+00
   outer loop
     vertex  3.125000e-02  0.000000e+00  0.000000e+00
     vertex -1.789951e-01  7.521998e-02  0.000000e+00
     vertex -1.714590e-01  8.165641e-02  0.000000e+00
   endloop
 endfacet
 facet normal  0.000000e+00  0.000000e+00 -1.000000e+00
   outer loop
     vertex  3.125000e-02  0.000000e+00  0.000000e+00
     vertex -1.714590e-01  8.165641e-02  0.000000e+00
     vertex -1.650226e-01  8.919251e-02  0.000000e+00
   endloop
 endfacet
 facet normal  0.000000e+00  0.000000e+00 -1.000000e+00
   outer loop
     vertex  3.125000e-02  0.000000e+00  0.000000e+00
     vertex -1.650226e-01  8.919251e-02  0.000000e+00
     vertex -1.598443e-01  9.764271e-02  0.000000e+00
   endloop
 endfacet
 facet normal  0.000000e+00  0.000000e+00 -1.000000e+00
   outer loop
     vertex  3.125000e-02  0.000000e+00  0.000000e+00
     vertex -1.598443e-01  9.764271e-02  0.000000e+00
     vertex -1.560517e-01  1.067989e-01  0.000000e+00
   endloop
 endfacet
 facet normal  0.000000e+00  0.000000e+00 -1.000000e+00
   outer loop
     vertex  3.125000e-02  0.000000e+00  0.000000e+00
     vertex -1.560517e-01  1.067989e-01  0.000000e+00
     vertex -1.537381e-01  1.164357e-01  0.000000e+00
   endloop
 endfacet
 facet normal  0.000000e+00  0.000000e+00 -1.000000e+00
   outer loop
     vertex  3.125000e-02  0.000000e+00  0.000000e+00
     vertex -1.537381e-01  1.164357e-01  0.000000e+00
     vertex -1.529605e-01  1.263158e-01  0.000000e+00
   endloop
 endfacet
 facet normal -0.000000e+00 -0.000000e+00 -1.000000e+00
   outer loop
     vertex -3.740132e-01  4.236842e-01  0.000000e+00
     vertex -2.672142e-01  1.634391e-01  0.000000e+00
     vertex -4.687500e-01  4.236842e-01  0.000000e+00
   endloop
 endfacet
 facet normal  0.000000e+00  0.000000e+00 -1.000000e+00
   outer loop
     vertex -3.740132e-01  4.236842e-01  0.000000e+00
     vertex -2.356353e-01  1.863825e-01  0.000000e+00
     vertex -2.447915e-01  1.825899e-01  0.000000e+00
   endloop
 endfacet
 facet normal  0.000000e+00  0.000000e+00 -1.000000e+00
   outer loop
     vertex -3.740132e-01  4.236842e-01  0.000000e+00
     vertex -2.447915e-01  1.825899e-01  0.000000e+00
     vertex -2.532417e-01  1.774116e-01  0.000000e+00
   endloop
 endfacet
 facet normal  0.000000e+00  0.000000e+00 -1.000000e+00
   outer loop
     vertex -3.740132e-01  4.236842e-01  0.000000e+00
     vertex -2.532417e-01  1.774116e-01  0.000000e+00
     vertex -2.607778e-01  1.709752e-01  0.000000e+00
   endloop
 endfacet
 facet normal  0.000000e+00  0.000000e+00 -1.000000e+00
   outer loop
     vertex -3.740132e-01  4.236842e-01  0.000000e+00
     vertex -2.607778e-01  1.709752e-01  0.000000e+00
     vertex -2.672142e-01  1.634391e-01  0.000000e+00
   endloop
 endfacet
 facet normal  0.000000e+00 -0.000000e+00 -1.000000e+00
   outer loop
     vertex -3.750000e-01  5.763158e-01  0.000000e+00
     vertex -3.750000e-01  4.296875e-01  0.000000e+00
     vertex -4.687500e-01  4.296875e-01  0.000000e+00
   endloop
 endfacet
 facet normal -0.000000e+00  0.000000e+00 -1.000000e+00
   outer loop
     vertex -2.505446e-01  4.560844e-01  0.000000e+00
     vertex -3.740132e-01  4.236842e-01  0.000000e+00
     vertex -2.579159e-01  4.625720e-01  0.000000e+00
   endloop
 endfacet
 facet normal  0.000000e+00 -0.000000e+00 -1.000000e+00
   outer loop
     vertex -2.640848e-01  4.702120e-01  0.000000e+00
     vertex -2.579159e-01  4.625720e-01  0.000000e+00
     vertex -3.740132e-01  4.236842e-01  0.000000e+00
   endloop
 endfacet
 facet normal -0.000000e+00  0.000000e+00 -1.000000e+00
   outer loop
     vertex -2.421828e-01  4.509359e-01  0.000000e+00
     vertex -3.740132e-01  4.236842e-01  0.000000e+00
     vertex -2.505446e-01  4.560844e-01  0.000000e+00
   endloop
 endfacet
 facet normal -0.000000e+00  0.000000e+00 -1.000000e+00
   outer loop
     vertex -2.330713e-01  4.472746e-01  0.000000e+00
     vertex -3.740132e-01  4.236842e-01  0.000000e+00
     vertex -2.421828e-01  4.509359e-01  0.000000e+00
   endloop
 endfacet
 facet normal  0.000000e+00  0.000000e+00 -1.000000e+00
   outer loop
     vertex -2.330713e-01  4.472746e-01  0.000000e+00
     vertex -2.356353e-01  1.863825e-01  0.000000e+00
     vertex -3.740132e-01  4.236842e-01  0.000000e+00
   endloop
 endfacet
 facet normal  0.000000e+00 -0.000000e+00 -1.000000e+00
   outer loop
     vertex -2.330713e-01  4.472746e-01  0.000000e+00
     vertex -2.259985e-01  1.886961e-01  0.000000e+00
     vertex -2.356353e-01  1.863825e-01  0.000000e+00
   endloop
 endfacet
 facet normal -0.000000e+00  0.000000e+00 -1.000000e+00
   outer loop
     vertex -2.234721e-01  4.452058e-01  0.000000e+00
     vertex -2.259985e-01  1.886961e-01  0.000000e+00
     vertex -2.330713e-01  4.472746e-01  0.000000e+00
   endloop
 endfacet
 facet normal  0.000000e+00 -0.000000e+00 -1.000000e+00
   outer loop
     vertex -2.234721e-01  4.452058e-01  0.000000e+00
     vertex -2.161184e-01  1.894737e-01  0.000000e+00
     vertex -2.259985e-01  1.886961e-01  0.000000e+00
   endloop
 endfacet
 facet normal -0.000000e+00  0.000000e+00 -1.000000e+00
   outer loop
     vertex -2.136613e-01  4.447890e-01  0.000000e+00
     vertex -2.161184e-01  1.894737e-01  0.000000e+00
     vertex -2.234721e-01  4.452058e-01  0.000000e+00
   endloop
 endfacet
 facet normal  0.000000e+00 -0.000000e+00 -1.000000e+00
   outer loop
     vertex -2.136613e-01  4.447890e-01  0.000000e+00
     vertex -2.062383e-01  1.886961e-01  0.000000e+00
     vertex -2.161184e-01  1.894737e-01  0.000000e+00
   endloop
 endfacet
 facet normal  0.000000e+00  0.000000e+00 -1.000000e+00
   outer loop
     vertex -2.039212e-01  4.460363e-01  0.000000e+00
     vertex -2.062383e-01  1.886961e-01  0.000000e+00
     vertex -2.136613e-01  4.447890e-01  0.000000e+00
   endloop
 endfacet
 facet normal  0.000000e+00 -0.000000e+00 -1.000000e+00
   outer loop
     vertex -2.039212e-01  4.460363e-01  0.000000e+00
     vertex -1.966016e-01  1.863825e-01  0.000000e+00
     vertex -2.062383e-01  1.886961e-01  0.000000e+00
   endloop
 endfacet
 facet normal -0.000000e+00  0.000000e+00 -1.000000e+00
   outer loop
     vertex -2.721451e-01  5.172198e-01  0.000000e+00
     vertex -2.738046e-01  5.075414e-01  0.000000e+00
     vertex -3.740132e-01  5.763158e-01  0.000000e+00
   endloop
 endfacet
 facet normal  0.000000e+00  0.000000e+00 -1.000000e+00
   outer loop
     vertex -1.945320e-01  4.489117e-01  0.000000e+00
     vertex -1.966016e-01  1.863825e-01  0.000000e+00
     vertex -2.039212e-01  4.460363e-01  0.000000e+00
   endloop
 endfacet
 facet normal -0.000000e+00  0.000000e+00 -1.000000e+00
   outer loop
     vertex -2.688738e-01  5.264785e-01  0.000000e+00
     vertex -2.721451e-01  5.172198e-01  0.000000e+00
     vertex -3.740132e-01  5.763158e-01  0.000000e+00
   endloop
 endfacet
 facet normal -0.000000e+00  0.000000e+00 -1.000000e+00
   outer loop
     vertex -2.640848e-01  5.350512e-01  0.000000e+00
     vertex -2.688738e-01  5.264785e-01  0.000000e+00
     vertex -3.740132e-01  5.763158e-01  0.000000e+00
   endloop
 endfacet
 facet normal  0.000000e+00  0.000000e+00 -1.000000e+00
   outer loop
     vertex -4.687500e-01  7.500000e-01  0.000000e+00
     vertex -3.740132e-01  5.763158e-01  0.000000e+00
     vertex -3.750000e-01  5.763158e-01  0.000000e+00
   endloop
 endfacet
 facet normal  0.000000e+00  0.000000e+00 -1.000000e+00
   outer loop
     vertex -4.687500e-01  7.500000e-01  0.000000e+00
     vertex -3.750000e-01  5.763158e-01  0.000000e+00
     vertex -4.687500e-01  4.296875e-01  0.000000e+00
   endloop
 endfacet
 facet normal -0.000000e+00  0.000000e+00 -1.000000e+00
   outer loop
     vertex -2.579159e-01  5.426912e-01  0.000000e+00
     vertex -2.640848e-01  5.350512e-01  0.000000e+00
     vertex -3.740132e-01  5.763158e-01  0.000000e+00
   endloop
 endfacet
 facet normal -0.000000e+00  0.000000e+00 -1.000000e+00
   outer loop
     vertex -2.505446e-01  5.491788e-01  0.000000e+00
     vertex -2.579159e-01  5.426912e-01  0.000000e+00
     vertex -3.740132e-01  5.763158e-01  0.000000e+00
   endloop
 endfacet
 facet normal -0.000000e+00  0.000000e+00 -1.000000e+00
   outer loop
     vertex -2.421828e-01  5.543273e-01  0.000000e+00
     vertex -2.505446e-01  5.491788e-01  0.000000e+00
     vertex -3.740132e-01  5.763158e-01  0.000000e+00
   endloop
 endfacet
 facet normal -0.000000e+00  0.000000e+00 -1.000000e+00
   outer loop
     vertex -2.330713e-01  5.579886e-01  0.000000e+00
     vertex -2.421828e-01  5.543273e-01  0.000000e+00
     vertex -3.740132e-01  5.763158e-01  0.000000e+00
   endloop
 endfacet
 facet normal  0.000000e+00  0.000000e+00 -1.000000e+00
   outer loop
     vertex -2.330713e-01  5.579886e-01  0.000000e+00
     vertex -3.740132e-01  5.763158e-01  0.000000e+00
     vertex -4.687500e-01  7.500000e-01  0.000000e+00
   endloop
 endfacet
 facet normal -0.000000e+00  0.000000e+00 -1.000000e+00
   outer loop
     vertex -2.234721e-01  5.600574e-01  0.000000e+00
     vertex -2.330713e-01  5.579886e-01  0.000000e+00
     vertex -4.687500e-01  7.500000e-01  0.000000e+00
   endloop
 endfacet
 facet normal -0.000000e+00  0.000000e+00 -1.000000e+00
   outer loop
     vertex -2.136613e-01  5.604742e-01  0.000000e+00
     vertex -2.234721e-01  5.600574e-01  0.000000e+00
     vertex -4.687500e-01  7.500000e-01  0.000000e+00
   endloop
 endfacet
 facet normal -0.000000e+00  0.000000e+00 -1.000000e+00
   outer loop
     vertex -6.348684e-02  4.236842e-01  0.000000e+00
     vertex -1.966016e-01  1.863825e-01  0.000000e+00
     vertex -1.945320e-01  4.489117e-01  0.000000e+00
   endloop
 endfacet
 facet normal  0.000000e+00  0.000000e+00 -1.000000e+00
   outer loop
     vertex -6.348684e-02  4.236842e-01  0.000000e+00
     vertex -1.945320e-01  4.489117e-01  0.000000e+00
     vertex -1.857638e-01  4.533325e-01  0.000000e+00
   endloop
 endfacet
 facet normal  0.000000e+00  0.000000e+00 -1.000000e+00
   outer loop
     vertex -6.348684e-02  4.236842e-01  0.000000e+00
     vertex -1.857638e-01  4.533325e-01  0.000000e+00
     vertex -1.778688e-01  4.591716e-01  0.000000e+00
   endloop
 endfacet
 facet normal  0.000000e+00  0.000000e+00 -1.000000e+00
   outer loop
     vertex -6.348684e-02  4.236842e-01  0.000000e+00
     vertex -1.778688e-01  4.591716e-01  0.000000e+00
     vertex -1.710742e-01  4.662609e-01  0.000000e+00
   endloop
 endfacet
 facet normal  0.000000e+00  0.000000e+00 -1.000000e+00
   outer loop
     vertex -6.348684e-02  4.236842e-01  0.000000e+00
     vertex -1.650226e-01  1.634391e-01  0.000000e+00
     vertex -1.714590e-01  1.709752e-01  0.000000e+00
   endloop
 endfacet
 facet normal  0.000000e+00  0.000000e+00 -1.000000e+00
   outer loop
     vertex -6.348684e-02  4.236842e-01  0.000000e+00
     vertex -1.714590e-01  1.709752e-01  0.000000e+00
     vertex -1.789951e-01  1.774116e-01  0.000000e+00
   endloop
 endfacet
 facet normal  0.000000e+00  0.000000e+00 -1.000000e+00
   outer loop
     vertex -6.348684e-02  4.236842e-01  0.000000e+00
     vertex -1.789951e-01  1.774116e-01  0.000000e+00
     vertex -1.874453e-01  1.825899e-01  0.000000e+00
   endloop
 endfacet
 facet normal  0.000000e+00  0.000000e+00 -1.000000e+00
   outer loop
     vertex -6.348684e-02  4.236842e-01  0.000000e+00
     vertex -1.874453e-01  1.825899e-01  0.000000e+00
     vertex -1.966016e-01  1.863825e-01  0.000000e+00
   endloop
 endfacet
 facet normal  0.000000e+00 -0.000000e+00 -1.000000e+00
   outer loop
     vertex  3.125000e-02  4.236842e-01  0.000000e+00
     vertex  3.125000e-02  0.000000e+00  0.000000e+00
     vertex -1.560517e-01  1.458327e-01  0.000000e+00
   endloop
 endfacet
 facet normal  0.000000e+00  0.000000e+00 -1.000000e+00
   outer loop
     vertex  3.125000e-02  4.236842e-01  0.000000e+00
     vertex -1.560517e-01  1.458327e-01  0.000000e+00
     vertex -1.598443e-01  1.549889e-01  0.000000e+00
   endloop
 endfacet
 facet normal  0.000000e+00  0.000000e+00 -1.000000e+00
   outer loop
     vertex  3.125000e-02  4.236842e-01  0.000000e+00
     vertex -1.598443e-01  1.549889e-01  0.000000e+00
     vertex -1.650226e-01  1.634391e-01  0.000000e+00
   endloop
 endfacet
 facet normal -0.000000e+00  0.000000e+00 -1.000000e+00
   outer loop
     vertex  3.125000e-02  4.236842e-01  0.000000e+00
     vertex -1.650226e-01  1.634391e-01  0.000000e+00
     vertex -6.348684e-02  4.236842e-01  0.000000e+00
   endloop
 endfacet
 facet normal  0.000000e+00  0.000000e+00 -1.000000e+00
   outer loop
     vertex -6.348684e-02  5.763158e-01  0.000000e+00
     vertex -1.582237e-01  5.026316e-01  0.000000e+00
     vertex -1.590564e-01  5.124158e-01  0.000000e+00
   endloop
 endfacet
 facet normal  0.000000e+00  0.000000e+00 -1.000000e+00
   outer loop
     vertex -6.348684e-02  5.763158e-01  0.000000e+00
     vertex -1.590564e-01  5.124158e-01  0.000000e+00
     vertex -1.615308e-01  5.219186e-01  0.000000e+00
   endloop
 endfacet
 facet normal  0.000000e+00  0.000000e+00 -1.000000e+00
   outer loop
     vertex -6.348684e-02  5.763158e-01  0.000000e+00
     vertex -1.615308e-01  5.219186e-01  0.000000e+00
     vertex -1.655755e-01  5.308665e-01  0.000000e+00
   endloop
 endfacet
 facet normal  0.000000e+00  0.000000e+00 -1.000000e+00
   outer loop
     vertex -6.348684e-02  5.763158e-01  0.000000e+00
     vertex -1.655755e-01  5.308665e-01  0.000000e+00
     vertex -1.710742e-01  5.390022e-01  0.000000e+00
   endloop
 endfacet
 facet normal  0.000000e+00  0.000000e+00 -1.000000e+00
   outer loop
     vertex -6.348684e-02  5.763158e-01  0.000000e+00
     vertex -1.710742e-01  5.390022e-01  0.000000e+00
     vertex -1.778688e-01  5.460916e-01  0.000000e+00
   endloop
 endfacet
 facet normal  0.000000e+00  0.000000e+00 -1.000000e+00
   outer loop
     vertex -6.348684e-02  5.763158e-01  0.000000e+00
     vertex -1.778688e-01  5.460916e-01  0.000000e+00
     vertex -1.857638e-01  5.519306e-01  0.000000e+00
   endloop
 endfacet
 facet normal  0.000000e+00  0.000000e+00 -1.000000e+00
   outer loop
     vertex -6.348684e-02  5.763158e-01  0.000000e+00
     vertex -1.857638e-01  5.519306e-01  0.000000e+00
     vertex -1.945320e-01  5.563515e-01  0.000000e+00
   endloop
 endfacet
 facet normal  0.000000e+00  0.000000e+00 -1.000000e+00
   outer loop
     vertex -6.348684e-02  5.763158e-01  0.000000e+00
     vertex -1.945320e-01  5.563515e-01  0.000000e+00
     vertex -2.039212e-01  5.592269e-01  0.000000e+00
   endloop
 endfacet
 facet normal  0.000000e+00  0.000000e+00 -1.000000e+00
   outer loop
     vertex -6.250000e-02  5.763158e-01  0.000000e+00
     vertex  3.125000e-02  4.296875e-01  0.000000e+00
     vertex -6.250000e-02  4.296875e-01  0.000000e+00
   endloop
 endfacet
 facet normal  0.000000e+00  0.000000e+00 -1.000000e+00
   outer loop
     vertex  3.125000e-02  7.500000e-01  0.000000e+00
     vertex -6.250000e-02  5.763158e-01  0.000000e+00
     vertex -6.348684e-02  5.763158e-01  0.000000e+00
   endloop
 endfacet
 facet normal -0.000000e+00  0.000000e+00 -1.000000e+00
   outer loop
     vertex  3.125000e-02  7.500000e-01  0.000000e+00
     vertex -2.136613e-01  5.604742e-01  0.000000e+00
     vertex -4.687500e-01  7.500000e-01  0.000000e+00
   endloop
 endfacet
 facet normal  0.000000e+00  0.000000e+00 -1.000000e+00
   outer loop
     vertex  3.125000e-02  7.500000e-01  0.000000e+00
     vertex -2.039212e-01  5.592269e-01  0.000000e+00
     vertex -2.136613e-01  5.604742e-01  0.000000e+00
   endloop
 endfacet
 facet normal  0.000000e+00 -0.000000e+00 -1.000000e+00
   outer loop
     vertex  3.125000e-02  7.500000e-01  0.000000e+00
     vertex  3.125000e-02  4.296875e-01  0.000000e+00
     vertex -6.250000e-02  5.763158e-01  0.000000e+00
   endloop
 endfacet
 facet normal  0.000000e+00  0.000000e+00 -1.000000e+00
   outer loop
     vertex  3.125000e-02  7.500000e-01  0.000000e+00
     vertex -6.348684e-02  5.763158e-01  0.000000e+00
     vertex -2.039212e-01  5.592269e-01  0.000000e+00
   endloop
 endfacet
 facet normal  0.000000e+00  0.000000e+00 -1.000000e+00
   outer loop
     vertex -3.740132e-01  5.763158e-01  0.000000e+00
     vertex -2.738046e-01  4.977218e-01  0.000000e+00
     vertex -3.740132e-01  4.236842e-01  0.000000e+00
   endloop
 endfacet
 facet normal  0.000000e+00 -0.000000e+00 -1.000000e+00
   outer loop
     vertex -2.738046e-01  4.977218e-01  0.000000e+00
     vertex -2.721451e-01  4.880434e-01  0.000000e+00
     vertex -3.740132e-01  4.236842e-01  0.000000e+00
   endloop
 endfacet
 facet normal  0.000000e+00 -0.000000e+00 -1.000000e+00
   outer loop
     vertex -2.721451e-01  4.880434e-01  0.000000e+00
     vertex -2.688738e-01  4.787847e-01  0.000000e+00
     vertex -3.740132e-01  4.236842e-01  0.000000e+00
   endloop
 endfacet
 facet normal  0.000000e+00 -0.000000e+00 -1.000000e+00
   outer loop
     vertex -2.688738e-01  4.787847e-01  0.000000e+00
     vertex -2.640848e-01  4.702120e-01  0.000000e+00
     vertex -3.740132e-01  4.236842e-01  0.000000e+00
   endloop
 endfacet
 facet normal  0.000000e+00  0.000000e+00 -1.000000e+00
   outer loop
     vertex -3.740132e-01  5.763158e-01  0.000000e+00
     vertex -2.738046e-01  5.075414e-01  0.000000e+00
     vertex -2.738046e-01  4.977218e-01  0.000000e+00
   endloop
 endfacet
 facet normal  0.000000e+00  0.000000e+00 -1.000000e+00
   outer loop
     vertex -6.348684e-02  4.236842e-01  0.000000e+00
     vertex -1.582237e-01  5.026316e-01  0.000000e+00
     vertex -6.348684e-02  5.763158e-01  0.000000e+00
   endloop
 endfacet
 facet normal  0.000000e+00  0.000000e+00 -1.000000e+00
   outer loop
     vertex -6.348684e-02  4.236842e-01  0.000000e+00
     vertex -1.590564e-01  4.928473e-01  0.000000e+00
     vertex -1.582237e-01  5.026316e-01  0.000000e+00
   endloop
 endfacet
 facet normal  0.000000e+00  0.000000e+00 -1.000000e+00
   outer loop
     vertex -6.348684e-02  4.236842e-01  0.000000e+00
     vertex -1.615308e-01  4.833445e-01  0.000000e+00
     vertex -1.590564e-01  4.928473e-01  0.000000e+00
   endloop
 endfacet
 facet normal  0.000000e+00  0.000000e+00 -1.000000e+00
   outer loop
     vertex -6.348684e-02  4.236842e-01  0.000000e+00
     vertex -1.655755e-01  4.743966e-01  0.000000e+00
     vertex -1.615308e-01  4.833445e-01  0.000000e+00
   endloop
 endfacet
 facet normal  0.000000e+00  0.000000e+00 -1.000000e+00
   outer loop
     vertex -6.348684e-02  4.236842e-01  0.000000e+00
     vertex -1.710742e-01  4.662609e-01  0.000000e+00
     vertex -1.655755e-01  4.743966e-01  0.000000e+00
   endloop
 endfacet
 facet normal  0.000000e+00  1.000000e+00  0.000000e+00
   outer loop
     vertex -6.250000e-02  5.781250e-01  1.250000e-01
     vertex  3.125000e-02  5.781250e-01  2.500000e-01
     vertex  3.125000e-02  5.781250e-01  1.250000e-01
   endloop
 endfacet
 facet normal  0.000000e+00  1.000000e+00  0.000000e+00
   outer loop
     vertex -6.250000e-02  5.781250e-01  1.250000e-01
     vertex -6.250000e-02  5.781250e-01  2.500000e-01
     vertex  3.125000e-02  5.781250e-01  2.500000e-01
   endloop
 endfacet
 facet normal  0.000000e+00  0.000000e+00  1.000000e+00
   outer loop
     vertex  3.125000e-02  5.781250e-01  2.500000e-01
     vertex -6.250000e-02  5.781250e-01  2.500000e-01
     vertex -6.250000e-02  4.296875e-01  2.500000e-01
   endloop
 endfacet
 facet normal  0.000000e+00  0.000000e+00  1.000000e+00
   outer loop
     vertex  3.125000e-02  5.781250e-01  2.500000e-01
     vertex -6.250000e-02  4.296875e-01  2.500000e-01
     vertex  3.125000e-02  4.296875e-01  2.500000e-01
   endloop
 endfacet
 facet normal  0.000000e+00 -1.000000e+00  0.000000e+00
   outer loop
     vertex  3.125000e-02  4.296875e-01  0.000000e+00
     vertex -6.250000e-02  4.296875e-01  2.500000e-01
     vertex -6.250000e-02  4.296875e-01  0.000000e+00
   endloop
 endfacet
 facet normal  0.000000e+00 -1.000000e+00  0.000000e+00
   outer loop
     vertex  3.125000e-02  4.296875e-01  0.000000e+00
     vertex  3.125000e-02  4.296875e-01  2.500000e-01
     vertex -6.250000e-02  4.296875e-01  2.500000e-01
   endloop
 endfacet
 facet normal -1.000000e+00  0.000000e+00  0.000000e+00
   outer loop
     vertex -6.250000e-02  5.763158e-01  1.250000e-01
     vertex -6.250000e-02  5.781250e-01  2.500000e-01
     vertex -6.250000e-02  5.781250e-01  1.250000e-01
   endloop
 endfacet
 facet normal -1.000000e+00  0.000000e+00  0.000000e+00
   outer loop
     vertex -6.250000e-02  4.296875e-01  2.500000e-01
     vertex -6.250000e-02  5.781250e-01  2.500000e-01
     vertex -6.250000e-02  5.763158e-01  1.250000e-01
   endloop
 endfacet
 facet normal -1.000000e+00  0.000000e+00  0.000000e+00
   outer loop
     vertex -6.250000e-02  4.296875e-01  0.000000e+00
     vertex -6.250000e-02  5.763158e-01  1.250000e-01
     vertex -6.250000e-02  5.763158e-01  0.000000e+00
   endloop
 endfacet
 facet normal -1.000000e+00  0.000000e+00  0.000000e+00
   outer loop
     vertex -6.250000e-02  4.296875e-01  0.000000e+00
     vertex -6.250000e-02  4.296875e-01  2.500000e-01
     vertex -6.250000e-02  5.763158e-01  1.250000e-01
   endloop
 endfacet
 facet normal  0.000000e+00  0.000000e+00  1.000000e+00
   outer loop
     vertex -2.672142e-01  8.919251e-02  1.250000e-01
     vertex -4.687500e-01  0.000000e+00  1.250000e-01
     vertex -2.607778e-01  8.165641e-02  1.250000e-01
   endloop
 endfacet
 facet normal  0.000000e+00  0.000000e+00  1.000000e+00
   outer loop
     vertex -2.532417e-01  7.521998e-02  1.250000e-01
     vertex -2.607778e-01  8.165641e-02  1.250000e-01
     vertex -4.687500e-01  0.000000e+00  1.250000e-01
   endloop
 endfacet
 facet normal  0.000000e+00  0.000000e+00  1.000000e+00
   outer loop
     vertex -2.447915e-01  7.004169e-02  1.250000e-01
     vertex -2.532417e-01  7.521998e-02  1.250000e-01
     vertex -4.687500e-01  0.000000e+00  1.250000e-01
   endloop
 endfacet
 facet normal  0.000000e+00  0.000000e+00  1.000000e+00
   outer loop
     vertex -2.723925e-01  9.764271e-02  1.250000e-01
     vertex -4.687500e-01  0.000000e+00  1.250000e-01
     vertex -2.672142e-01  8.919251e-02  1.250000e-01
   endloop
 endfacet
 facet normal  0.000000e+00  0.000000e+00  1.000000e+00
   outer loop
     vertex -2.761851e-01  1.067989e-01  1.250000e-01
     vertex -4.687500e-01  0.000000e+00  1.250000e-01
     vertex -2.723925e-01  9.764271e-02  1.250000e-01
   endloop
 endfacet
 facet normal  0.000000e+00  0.000000e+00  1.000000e+00
   outer loop
     vertex -2.356353e-01  6.624906e-02  1.250000e-01
     vertex -2.447915e-01  7.004169e-02  1.250000e-01
     vertex -4.687500e-01  0.000000e+00  1.250000e-01
   endloop
 endfacet
 facet normal  0.000000e+00  0.000000e+00  1.000000e+00
   outer loop
     vertex -2.784987e-01  1.164357e-01  1.250000e-01
     vertex -4.687500e-01  0.000000e+00  1.250000e-01
     vertex -2.761851e-01  1.067989e-01  1.250000e-01
   endloop
 endfacet
 facet normal  0.000000e+00  0.000000e+00  1.000000e+00
   outer loop
     vertex -2.259985e-01  6.393547e-02  1.250000e-01
     vertex -2.356353e-01  6.624906e-02  1.250000e-01
     vertex -4.687500e-01  0.000000e+00  1.250000e-01
   endloop
 endfacet
 facet normal  0.000000e+00  0.000000e+00  1.000000e+00
   outer loop
     vertex -2.792763e-01  1.263158e-01  1.250000e-01
     vertex -4.687500e-01  0.000000e+00  1.250000e-01
     vertex -2.784987e-01  1.164357e-01  1.250000e-01
   endloop
 endfacet
 facet normal  0.000000e+00  0.000000e+00  1.000000e+00
   outer loop
     vertex -2.161184e-01  6.315789e-02  1.250000e-01
     vertex -2.259985e-01  6.393547e-02  1.250000e-01
     vertex -4.687500e-01  0.000000e+00  1.250000e-01
   endloop
 endfacet
 facet normal  0.000000e+00  0.000000e+00  1.000000e+00
   outer loop
     vertex -2.784987e-01  1.361959e-01  1.250000e-01
     vertex -4.687500e-01  0.000000e+00  1.250000e-01
     vertex -2.792763e-01  1.263158e-01  1.250000e-01
   endloop
 endfacet
 facet normal  0.000000e+00  0.000000e+00  1.000000e+00
   outer loop
     vertex -2.761851e-01  1.458327e-01  1.250000e-01
     vertex -4.687500e-01  0.000000e+00  1.250000e-01
     vertex -2.784987e-01  1.361959e-01  1.250000e-01
   endloop
 endfacet
 facet normal  0.000000e+00  0.000000e+00  1.000000e+00
   outer loop
     vertex -4.687500e-01  4.236842e-01  1.250000e-01
     vertex -4.687500e-01  0.000000e+00  1.250000e-01
     vertex -2.761851e-01  1.458327e-01  1.250000e-01
   endloop
 endfacet
 facet normal  0.000000e+00  0.000000e+00  1.000000e+00
   outer loop
     vertex -4.687500e-01  4.236842e-01  1.250000e-01
     vertex -2.723925e-01  1.549889e-01  1.250000e-01
     vertex -2.672142e-01  1.634391e-01  1.250000e-01
   endloop
 endfacet
 facet normal  0.000000e+00  0.000000e+00  1.000000e+00
   outer loop
     vertex -4.687500e-01  4.236842e-01  1.250000e-01
     vertex -2.761851e-01  1.458327e-01  1.250000e-01
     vertex -2.723925e-01  1.549889e-01  1.250000e-01
   endloop
 endfacet
 facet normal  0.000000e+00  0.000000e+00  1.000000e+00
   outer loop
     vertex  3.125000e-02  0.000000e+00  1.250000e-01
     vertex -2.161184e-01  6.315789e-02  1.250000e-01
     vertex -4.687500e-01  0.000000e+00  1.250000e-01
   endloop
 endfacet
 facet normal  0.000000e+00  0.000000e+00  1.000000e+00
   outer loop
     vertex  3.125000e-02  0.000000e+00  1.250000e-01
     vertex -1.537381e-01  1.361959e-01  1.250000e-01
     vertex -1.529605e-01  1.263158e-01  1.250000e-01
   endloop
 endfacet
 facet normal  0.000000e+00  0.000000e+00  1.000000e+00
   outer loop
     vertex  3.125000e-02  0.000000e+00  1.250000e-01
     vertex -1.560517e-01  1.458327e-01  1.250000e-01
     vertex -1.537381e-01  1.361959e-01  1.250000e-01
   endloop
 endfacet
 facet normal  0.000000e+00  0.000000e+00  1.000000e+00
   outer loop
     vertex  3.125000e-02  0.000000e+00  1.250000e-01
     vertex -2.062383e-01  6.393547e-02  1.250000e-01
     vertex -2.161184e-01  6.315789e-02  1.250000e-01
   endloop
 endfacet
 facet normal  0.000000e+00  0.000000e+00  1.000000e+00
   outer loop
     vertex  3.125000e-02  0.000000e+00  1.250000e-01
     vertex -1.966016e-01  6.624906e-02  1.250000e-01
     vertex -2.062383e-01  6.393547e-02  1.250000e-01
   endloop
 endfacet
 facet normal  0.000000e+00  0.000000e+00  1.000000e+00
   outer loop
     vertex  3.125000e-02  0.000000e+00  1.250000e-01
     vertex -1.874453e-01  7.004169e-02  1.250000e-01
     vertex -1.966016e-01  6.624906e-02  1.250000e-01
   endloop
 endfacet
 facet normal  0.000000e+00  0.000000e+00  1.000000e+00
   outer loop
     vertex  3.125000e-02  0.000000e+00  1.250000e-01
     vertex -1.789951e-01  7.521998e-02  1.250000e-01
     vertex -1.874453e-01  7.004169e-02  1.250000e-01
   endloop
 endfacet
 facet normal  0.000000e+00  0.000000e+00  1.000000e+00
   outer loop
     vertex  3.125000e-02  0.000000e+00  1.250000e-01
     vertex -1.714590e-01  8.165641e-02  1.250000e-01
     vertex -1.789951e-01  7.521998e-02  1.250000e-01
   endloop
 endfacet
 facet normal  0.000000e+00  0.000000e+00  1.000000e+00
   outer loop
     vertex  3.125000e-02  0.000000e+00  1.250000e-01
     vertex -1.650226e-01  8.919251e-02  1.250000e-01
     vertex -1.714590e-01  8.165641e-02  1.250000e-01
   endloop
 endfacet
 facet normal  0.000000e+00  0.000000e+00  1.000000e+00
   outer loop
     vertex  3.125000e-02  0.000000e+00  1.250000e-01
     vertex -1.598443e-01  9.764271e-02  1.250000e-01
     vertex -1.650226e-01  8.919251e-02  1.250000e-01
   endloop
 endfacet
 facet normal  0.000000e+00  0.000000e+00  1.000000e+00
   outer loop
     vertex  3.125000e-02  0.000000e+00  1.250000e-01
     vertex -1.560517e-01  1.067989e-01  1.250000e-01
     vertex -1.598443e-01  9.764271e-02  1.250000e-01
   endloop
 endfacet
 facet normal  0.000000e+00  0.000000e+00  1.000000e+00
   outer loop
     vertex  3.125000e-02  0.000000e+00  1.250000e-01
     vertex -1.537381e-01  1.164357e-01  1.250000e-01
     vertex -1.560517e-01  1.067989e-01  1.250000e-01
   endloop
 endfacet
 facet normal  0.000000e+00  0.000000e+00  1.000000e+00
   outer loop
     vertex  3.125000e-02  0.000000e+00  1.250000e-01
     vertex -1.529605e-01  1.263158e-01  1.250000e-01
     vertex -1.537381e-01  1.164357e-01  1.250000e-01
   endloop
 endfacet
 facet normal  0.000000e+00  0.000000e+00  1.000000e+00
   outer loop
     vertex -3.740132e-01  4.236842e-01  1.250000e-01
     vertex -4.687500e-01  4.236842e-01  1.250000e-01
     vertex -2.672142e-01  1.634391e-01  1.250000e-01
   endloop
 endfacet
 facet normal  0.000000e+00  0.000000e+00  1.000000e+00
   outer loop
     vertex -3.740132e-01  4.236842e-01  1.250000e-01
     vertex -2.447915e-01  1.825899e-01  1.250000e-01
     vertex -2.356353e-01  1.863825e-01  1.250000e-01
   endloop
 endfacet
 facet normal  0.000000e+00  0.000000e+00  1.000000e+00
   outer loop
     vertex -3.740132e-01  4.236842e-01  1.250000e-01
     vertex -2.532417e-01  1.774116e-01  1.250000e-01
     vertex -2.447915e-01  1.825899e-01  1.250000e-01
   endloop
 endfacet
 facet normal  0.000000e+00  0.000000e+00  1.000000e+00
   outer loop
     vertex -3.740132e-01  4.236842e-01  1.250000e-01
     vertex -2.607778e-01  1.709752e-01  1.250000e-01
     vertex -2.532417e-01  1.774116e-01  1.250000e-01
   endloop
 endfacet
 facet normal  0.000000e+00  0.000000e+00  1.000000e+00
   outer loop
     vertex -3.740132e-01  4.236842e-01  1.250000e-01
     vertex -2.672142e-01  1.634391e-01  1.250000e-01
     vertex -2.607778e-01  1.709752e-01  1.250000e-01
   endloop
 endfacet
 facet normal  0.000000e+00  0.000000e+00  1.000000e+00
   outer loop
     vertex -3.750000e-01  5.781250e-01  1.250000e-01
     vertex -3.750000e-01  5.763158e-01  1.250000e-01
     vertex -3.740132e-01  5.763158e-01  1.250000e-01
   endloop
 endfacet
 facet normal  0.000000e+00  0.000000e+00  1.000000e+00
   outer loop
     vertex -2.505446e-01  4.560844e-01  1.250000e-01
     vertex -2.579159e-01  4.625720e-01  1.250000e-01
     vertex -3.740132e-01  4.236842e-01  1.250000e-01
   endloop
 endfacet
 facet normal  0.000000e+00  0.000000e+00  1.000000e+00
   outer loop
     vertex -2.640848e-01  4.702120e-01  1.250000e-01
     vertex -3.740132e-01  4.236842e-01  1.250000e-01
     vertex -2.579159e-01  4.625720e-01  1.250000e-01
   endloop
 endfacet
 facet normal  0.000000e+00  0.000000e+00  1.000000e+00
   outer loop
     vertex -2.421828e-01  4.509359e-01  1.250000e-01
     vertex -2.505446e-01  4.560844e-01  1.250000e-01
     vertex -3.740132e-01  4.236842e-01  1.250000e-01
   endloop
 endfacet
 facet normal  0.000000e+00  0.000000e+00  1.000000e+00
   outer loop
     vertex -2.688738e-01  4.787847e-01  1.250000e-01
     vertex -3.740132e-01  4.236842e-01  1.250000e-01
     vertex -2.640848e-01  4.702120e-01  1.250000e-01
   endloop
 endfacet
 facet normal  0.000000e+00  0.000000e+00  1.000000e+00
   outer loop
     vertex -2.330713e-01  4.472746e-01  1.250000e-01
     vertex -3.740132e-01  4.236842e-01  1.250000e-01
     vertex -2.356353e-01  1.863825e-01  1.250000e-01
   endloop
 endfacet
 facet normal  0.000000e+00  0.000000e+00  1.000000e+00
   outer loop
     vertex -2.330713e-01  4.472746e-01  1.250000e-01
     vertex -2.421828e-01  4.509359e-01  1.250000e-01
     vertex -3.740132e-01  4.236842e-01  1.250000e-01
   endloop
 endfacet
 facet normal  0.000000e+00  0.000000e+00  1.000000e+00
   outer loop
     vertex -2.330713e-01  4.472746e-01  1.250000e-01
     vertex -2.356353e-01  1.863825e-01  1.250000e-01
     vertex -2.259985e-01  1.886961e-01  1.250000e-01
   endloop
 endfacet
 facet normal  0.000000e+00  0.000000e+00  1.000000e+00
   outer loop
     vertex -2.721451e-01  4.880434e-01  1.250000e-01
     vertex -3.740132e-01  4.236842e-01  1.250000e-01
     vertex -2.688738e-01  4.787847e-01  1.250000e-01
   endloop
 endfacet
 facet normal  0.000000e+00  0.000000e+00  1.000000e+00
   outer loop
     vertex -2.234721e-01  4.452058e-01  1.250000e-01
     vertex -2.330713e-01  4.472746e-01  1.250000e-01
     vertex -2.259985e-01  1.886961e-01  1.250000e-01
   endloop
 endfacet
 facet normal  0.000000e+00  0.000000e+00  1.000000e+00
   outer loop
     vertex -2.234721e-01  4.452058e-01  1.250000e-01
     vertex -2.259985e-01  1.886961e-01  1.250000e-01
     vertex -2.161184e-01  1.894737e-01  1.250000e-01
   endloop
 endfacet
 facet normal  0.000000e+00  0.000000e+00  1.000000e+00
   outer loop
     vertex -2.738046e-01  4.977218e-01  1.250000e-01
     vertex -3.740132e-01  4.236842e-01  1.250000e-01
     vertex -2.721451e-01  4.880434e-01  1.250000e-01
   endloop
 endfacet
 facet normal  0.000000e+00  0.000000e+00  1.000000e+00
   outer loop
     vertex -2.738046e-01  4.977218e-01  1.250000e-01
     vertex -3.740132e-01  5.763158e-01  1.250000e-01
     vertex -3.740132e-01  4.236842e-01  1.250000e-01
   endloop
 endfacet
 facet normal  0.000000e+00  0.000000e+00  1.000000e+00
   outer loop
     vertex -2.136613e-01  4.447890e-01  1.250000e-01
     vertex -2.234721e-01  4.452058e-01  1.250000e-01
     vertex -2.161184e-01  1.894737e-01  1.250000e-01
   endloop
 endfacet
 facet normal  0.000000e+00  0.000000e+00  1.000000e+00
   outer loop
     vertex -2.136613e-01  4.447890e-01  1.250000e-01
     vertex -2.161184e-01  1.894737e-01  1.250000e-01
     vertex -2.062383e-01  1.886961e-01  1.250000e-01
   endloop
 endfacet
 facet normal  0.000000e+00  0.000000e+00  1.000000e+00
   outer loop
     vertex -2.738046e-01  5.075414e-01  1.250000e-01
     vertex -3.740132e-01  5.763158e-01  1.250000e-01
     vertex -2.738046e-01  4.977218e-01  1.250000e-01
   endloop
 endfacet
 facet normal  0.000000e+00  0.000000e+00  1.000000e+00
   outer loop
     vertex -2.039212e-01  4.460363e-01  1.250000e-01
     vertex -2.136613e-01  4.447890e-01  1.250000e-01
     vertex -2.062383e-01  1.886961e-01  1.250000e-01
   endloop
 endfacet
 facet normal  0.000000e+00  0.000000e+00  1.000000e+00
   outer loop
     vertex -2.039212e-01  4.460363e-01  1.250000e-01
     vertex -2.062383e-01  1.886961e-01  1.250000e-01
     vertex -1.966016e-01  1.863825e-01  1.250000e-01
   endloop
 endfacet
 facet normal  0.000000e+00  0.000000e+00  1.000000e+00
   outer loop
     vertex -2.721451e-01  5.172198e-01  1.250000e-01
     vertex -3.740132e-01  5.763158e-01  1.250000e-01
     vertex -2.738046e-01  5.075414e-01  1.250000e-01
   endloop
 endfacet
 facet normal  0.000000e+00  0.000000e+00  1.000000e+00
   outer loop
     vertex -1.945320e-01  4.489117e-01  1.250000e-01
     vertex -2.039212e-01  4.460363e-01  1.250000e-01
     vertex -1.966016e-01  1.863825e-01  1.250000e-01
   endloop
 endfacet
 facet normal  0.000000e+00  0.000000e+00  1.000000e+00
   outer loop
     vertex -2.688738e-01  5.264785e-01  1.250000e-01
     vertex -3.740132e-01  5.763158e-01  1.250000e-01
     vertex -2.721451e-01  5.172198e-01  1.250000e-01
   endloop
 endfacet
 facet normal  0.000000e+00  0.000000e+00  1.000000e+00
   outer loop
     vertex -2.640848e-01  5.350512e-01  1.250000e-01
     vertex -3.740132e-01  5.763158e-01  1.250000e-01
     vertex -2.688738e-01  5.264785e-01  1.250000e-01
   endloop
 endfacet
 facet normal  0.000000e+00  0.000000e+00  1.000000e+00
   outer loop
     vertex -4.687500e-01  7.500000e-01  1.250000e-01
     vertex -4.687500e-01  5.781250e-01  1.250000e-01
     vertex -3.750000e-01  5.781250e-01  1.250000e-01
   endloop
 endfacet
 facet normal  0.000000e+00  0.000000e+00  1.000000e+00
   outer loop
     vertex -2.579159e-01  5.426912e-01  1.250000e-01
     vertex -3.740132e-01  5.763158e-01  1.250000e-01
     vertex -2.640848e-01  5.350512e-01  1.250000e-01
   endloop
 endfacet
 facet normal  0.000000e+00  0.000000e+00  1.000000e+00
   outer loop
     vertex -2.505446e-01  5.491788e-01  1.250000e-01
     vertex -3.740132e-01  5.763158e-01  1.250000e-01
     vertex -2.579159e-01  5.426912e-01  1.250000e-01
   endloop
 endfacet
 facet normal  0.000000e+00  0.000000e+00  1.000000e+00
   outer loop
     vertex -2.505446e-01  5.491788e-01  1.250000e-01
     vertex -3.750000e-01  5.781250e-01  1.250000e-01
     vertex -3.740132e-01  5.763158e-01  1.250000e-01
   endloop
 endfacet
 facet normal  0.000000e+00  0.000000e+00  1.000000e+00
   outer loop
     vertex -2.421828e-01  5.543273e-01  1.250000e-01
     vertex -3.750000e-01  5.781250e-01  1.250000e-01
     vertex -2.505446e-01  5.491788e-01  1.250000e-01
   endloop
 endfacet
 facet normal  0.000000e+00  0.000000e+00  1.000000e+00
   outer loop
     vertex -2.330713e-01  5.579886e-01  1.250000e-01
     vertex -4.687500e-01  7.500000e-01  1.250000e-01
     vertex -3.750000e-01  5.781250e-01  1.250000e-01
   endloop
 endfacet
 facet normal  0.000000e+00  0.000000e+00  1.000000e+00
   outer loop
     vertex -2.330713e-01  5.579886e-01  1.250000e-01
     vertex -3.750000e-01  5.781250e-01  1.250000e-01
     vertex -2.421828e-01  5.543273e-01  1.250000e-01
   endloop
 endfacet
 facet normal  0.000000e+00  0.000000e+00  1.000000e+00
   outer loop
     vertex -2.234721e-01  5.600574e-01  1.250000e-01
     vertex -4.687500e-01  7.500000e-01  1.250000e-01
     vertex -2.330713e-01  5.579886e-01  1.250000e-01
   endloop
 endfacet
 facet normal  0.000000e+00  0.000000e+00  1.000000e+00
   outer loop
     vertex -2.136613e-01  5.604742e-01  1.250000e-01
     vertex -4.687500e-01  7.500000e-01  1.250000e-01
     vertex -2.234721e-01  5.600574e-01  1.250000e-01
   endloop
 endfacet
 facet normal  0.000000e+00  0.000000e+00  1.000000e+00
   outer loop
     vertex -6.348684e-02  4.236842e-01  1.250000e-01
     vertex -1.945320e-01  4.489117e-01  1.250000e-01
     vertex -1.966016e-01  1.863825e-01  1.250000e-01
   endloop
 endfacet
 facet normal  0.000000e+00  0.000000e+00  1.000000e+00
   outer loop
     vertex -6.348684e-02  4.236842e-01  1.250000e-01
     vertex -1.857638e-01  4.533325e-01  1.250000e-01
     vertex -1.945320e-01  4.489117e-01  1.250000e-01
   endloop
 endfacet
 facet normal  0.000000e+00  0.000000e+00  1.000000e+00
   outer loop
     vertex -6.348684e-02  4.236842e-01  1.250000e-01
     vertex -1.778688e-01  4.591716e-01  1.250000e-01
     vertex -1.857638e-01  4.533325e-01  1.250000e-01
   endloop
 endfacet
 facet normal  0.000000e+00  0.000000e+00  1.000000e+00
   outer loop
     vertex -6.348684e-02  4.236842e-01  1.250000e-01
     vertex -1.710742e-01  4.662609e-01  1.250000e-01
     vertex -1.778688e-01  4.591716e-01  1.250000e-01
   endloop
 endfacet
 facet normal  0.000000e+00  0.000000e+00  1.000000e+00
   outer loop
     vertex -6.348684e-02  4.236842e-01  1.250000e-01
     vertex -1.655755e-01  4.743966e-01  1.250000e-01
     vertex -1.710742e-01  4.662609e-01  1.250000e-01
   endloop
 endfacet
 facet normal  0.000000e+00  0.000000e+00  1.000000e+00
   outer loop
     vertex -6.348684e-02  4.236842e-01  1.250000e-01
     vertex -1.615308e-01  4.833445e-01  1.250000e-01
     vertex -1.655755e-01  4.743966e-01  1.250000e-01
   endloop
 endfacet
 facet normal  0.000000e+00  0.000000e+00  1.000000e+00
   outer loop
     vertex -6.348684e-02  4.236842e-01  1.250000e-01
     vertex -1.590564e-01  4.928473e-01  1.250000e-01
     vertex -1.615308e-01  4.833445e-01  1.250000e-01
   endloop
 endfacet
 facet normal  0.000000e+00  0.000000e+00  1.000000e+00
   outer loop
     vertex -6.348684e-02  4.236842e-01  1.250000e-01
     vertex -1.582237e-01  5.026316e-01  1.250000e-01
     vertex -1.590564e-01  4.928473e-01  1.250000e-01
   endloop
 endfacet
 facet normal  0.000000e+00  0.000000e+00  1.000000e+00
   outer loop
     vertex -6.348684e-02  4.236842e-01  1.250000e-01
     vertex -1.714590e-01  1.709752e-01  1.250000e-01
     vertex -1.650226e-01  1.634391e-01  1.250000e-01
   endloop
 endfacet
 facet normal  0.000000e+00  0.000000e+00  1.000000e+00
   outer loop
     vertex -6.348684e-02  4.236842e-01  1.250000e-01
     vertex -1.789951e-01  1.774116e-01  1.250000e-01
     vertex -1.714590e-01  1.709752e-01  1.250000e-01
   endloop
 endfacet
 facet normal  0.000000e+00  0.000000e+00  1.000000e+00
   outer loop
     vertex -6.348684e-02  4.236842e-01  1.250000e-01
     vertex -1.874453e-01  1.825899e-01  1.250000e-01
     vertex -1.789951e-01  1.774116e-01  1.250000e-01
   endloop
 endfacet
 facet normal  0.000000e+00  0.000000e+00  1.000000e+00
   outer loop
     vertex -6.348684e-02  4.236842e-01  1.250000e-01
     vertex -1.966016e-01  1.863825e-01  1.250000e-01
     vertex -1.874453e-01  1.825899e-01  1.250000e-01
   endloop
 endfacet
 facet normal  0.000000e+00  0.000000e+00  1.000000e+00
   outer loop
     vertex  3.125000e-02  4.236842e-01  1.250000e-01
     vertex -1.560517e-01  1.458327e-01  1.250000e-01
     vertex  3.125000e-02  0.000000e+00  1.250000e-01
   endloop
 endfacet
 facet normal  0.000000e+00  0.000000e+00  1.000000e+00
   outer loop
     vertex  3.125000e-02  4.236842e-01  1.250000e-01
     vertex -1.598443e-01  1.549889e-01  1.250000e-01
     vertex -1.560517e-01  1.458327e-01  1.250000e-01
   endloop
 endfacet
 facet normal  0.000000e+00  0.000000e+00  1.000000e+00
   outer loop
     vertex  3.125000e-02  4.236842e-01  1.250000e-01
     vertex -1.650226e-01  1.634391e-01  1.250000e-01
     vertex -1.598443e-01  1.549889e-01  1.250000e-01
   endloop
 endfacet
 facet normal  0.000000e+00  0.000000e+00  1.000000e+00
   outer loop
     vertex  3.125000e-02  4.236842e-01  1.250000e-01
     vertex -6.348684e-02  4.236842e-01  1.250000e-01
     vertex -1.650226e-01  1.634391e-01  1.250000e-01
   endloop
 endfacet
 facet normal  0.000000e+00  0.000000e+00  1.000000e+00
   outer loop
     vertex -6.348684e-02  5.763158e-01  1.250000e-01
     vertex -1.590564e-01  5.124158e-01  1.250000e-01
     vertex -1.582237e-01  5.026316e-01  1.250000e-01
   endloop
 endfacet
 facet normal  0.000000e+00  0.000000e+00  1.000000e+00
   outer loop
     vertex -6.348684e-02  5.763158e-01  1.250000e-01
     vertex -1.615308e-01  5.219186e-01  1.250000e-01
     vertex -1.590564e-01  5.124158e-01  1.250000e-01
   endloop
 endfacet
 facet normal  0.000000e+00  0.000000e+00  1.000000e+00
   outer loop
     vertex -6.348684e-02  5.763158e-01  1.250000e-01
     vertex -1.655755e-01  5.308665e-01  1.250000e-01
     vertex -1.615308e-01  5.219186e-01  1.250000e-01
   endloop
 endfacet
 facet normal  0.000000e+00  0.000000e+00  1.000000e+00
   outer loop
     vertex -6.348684e-02  5.763158e-01  1.250000e-01
     vertex -1.710742e-01  5.390022e-01  1.250000e-01
     vertex -1.655755e-01  5.308665e-01  1.250000e-01
   endloop
 endfacet
 facet normal  0.000000e+00  0.000000e+00  1.000000e+00
   outer loop
     vertex -6.348684e-02  5.763158e-01  1.250000e-01
     vertex -1.778688e-01  5.460916e-01  1.250000e-01
     vertex -1.710742e-01  5.390022e-01  1.250000e-01
   endloop
 endfacet
 facet normal  0.000000e+00  0.000000e+00  1.000000e+00
   outer loop
     vertex -6.348684e-02  5.763158e-01  1.250000e-01
     vertex -1.857638e-01  5.519306e-01  1.250000e-01
     vertex -1.778688e-01  5.460916e-01  1.250000e-01
   endloop
 endfacet
 facet normal  0.000000e+00  0.000000e+00  1.000000e+00
   outer loop
     vertex -6.348684e-02  5.763158e-01  1.250000e-01
     vertex -1.582237e-01  5.026316e-01  1.250000e-01
     vertex -6.348684e-02  4.236842e-01  1.250000e-01
   endloop
 endfacet
 facet normal  0.000000e+00  0.000000e+00  1.000000e+00
   outer loop
     vertex -6.250000e-02  5.781250e-01  1.250000e-01
     vertex -1.945320e-01  5.563515e-01  1.250000e-01
     vertex -1.857638e-01  5.519306e-01  1.250000e-01
   endloop
 endfacet
 facet normal  0.000000e+00  0.000000e+00  1.000000e+00
   outer loop
     vertex -6.250000e-02  5.781250e-01  1.250000e-01
     vertex -2.039212e-01  5.592269e-01  1.250000e-01
     vertex -1.945320e-01  5.563515e-01  1.250000e-01
   endloop
 endfacet
 facet normal  0.000000e+00  0.000000e+00  1.000000e+00
   outer loop
     vertex -6.250000e-02  5.781250e-01  1.250000e-01
     vertex -6.348684e-02  5.763158e-01  1.250000e-01
     vertex -6.250000e-02  5.763158e-01  1.250000e-01
   endloop
 endfacet
 facet normal  0.000000e+00  0.000000e+00  1.000000e+00
   outer loop
     vertex -6.250000e-02  5.781250e-01  1.250000e-01
     vertex -1.857638e-01  5.519306e-01  1.250000e-01
     vertex -6.348684e-02  5.763158e-01  1.250000e-01
   endloop
 endfacet
 facet normal  0.000000e+00  0.000000e+00  1.000000e+00
   outer loop
     vertex  3.125000e-02  7.500000e-01  1.250000e-01
     vertex -2.136613e-01  5.604742e-01  1.250000e-01
     vertex -2.039212e-01  5.592269e-01  1.250000e-01
   endloop
 endfacet
 facet normal  0.000000e+00  0.000000e+00  1.000000e+00
   outer loop
     vertex  3.125000e-02  7.500000e-01  1.250000e-01
     vertex -4.687500e-01  7.500000e-01  1.250000e-01
     vertex -2.136613e-01  5.604742e-01  1.250000e-01
   endloop
 endfacet
 facet normal  0.000000e+00  0.000000e+00  1.000000e+00
   outer loop
     vertex  3.125000e-02  7.500000e-01  1.250000e-01
     vertex -2.039212e-01  5.592269e-01  1.250000e-01
     vertex -6.250000e-02  5.781250e-01  1.250000e-01
   endloop
 endfacet
 facet normal  0.000000e+00  0.000000e+00  1.000000e+00
   outer loop
     vertex  3.125000e-02  7.500000e-01  1.250000e-01
     vertex -6.250000e-02  5.781250e-01  1.250000e-01
     vertex  3.125000e-02  5.781250e-01  1.250000e-01
   endloop
 endfacet
 facet normal  0.000000e+00 -1.000000e+00  0.000000e+00
   outer loop
     vertex -6.250000e-02  5.763158e-01  0.000000e+00
     vertex -6.348684e-02  5.763158e-01  1.250000e-01
     vertex -6.348684e-02  5.763158e-01  0.000000e+00
   endloop
 endfacet
 facet normal  0.000000e+00 -1.000000e+00  0.000000e+00
   outer loop
     vertex -6.250000e-02  5.763158e-01  0.000000e+00
     vertex -6.250000e-02  5.763158e-01  1.250000e-01
     vertex -6.348684e-02  5.763158e-01  1.250000e-01
   endloop
 endfacet
 facet normal  0.000000e+00  1.000000e+00  0.000000e+00
   outer loop
     vertex -4.687500e-01  7.500000e-01  0.000000e+00
     vertex  3.125000e-02  7.500000e-01  1.250000e-01
     vertex  3.125000e-02  7.500000e-01  0.000000e+00
   endloop
 endfacet
 facet normal  0.000000e+00  1.000000e+00  0.000000e+00
   outer loop
     vertex -4.687500e-01  7.500000e-01  0.000000e+00
     vertex -4.687500e-01  7.500000e-01  1.250000e-01
     vertex  3.125000e-02  7.500000e-01  1.250000e-01
   endloop
 endfacet
 facet normal  0.000000e+00  1.000000e+00  0.000000e+00
   outer loop
     vertex -4.687500e-01  4.236842e-01  0.000000e+00
     vertex -3.740132e-01  4.236842e-01  1.250000e-01
     vertex -3.740132e-01  4.236842e-01  0.000000e+00
   endloop
 endfacet
 facet normal  0.000000e+00  1.000000e+00  0.000000e+00
   outer loop
     vertex -4.687500e-01  4.236842e-01  0.000000e+00
     vertex -4.687500e-01  4.236842e-01  1.250000e-01
     vertex -3.740132e-01  4.236842e-01  1.250000e-01
   endloop
 endfacet
 facet normal -1.000000e+00  0.000000e+00  0.000000e+00
   outer loop
     vertex -3.740132e-01  4.236842e-01  0.000000e+00
     vertex -3.740132e-01  5.763158e-01  1.250000e-01
     vertex -3.740132e-01  5.763158e-01  0.000000e+00
   endloop
 endfacet
 facet normal -1.000000e+00  0.000000e+00  0.000000e+00
   outer loop
     vertex -3.740132e-01  4.236842e-01  0.000000e+00
     vertex -3.740132e-01  4.236842e-01  1.250000e-01
     vertex -3.740132e-01  5.763158e-01  1.250000e-01
   endloop
 endfacet
 facet normal  0.000000e+00 -1.000000e+00  0.000000e+00
   outer loop
     vertex -3.740132e-01  5.763158e-01  0.000000e+00
     vertex -3.750000e-01  5.763158e-01  1.250000e-01
     vertex -3.750000e-01  5.763158e-01  0.000000e+00
   endloop
 endfacet
 facet normal  0.000000e+00 -1.000000e+00  0.000000e+00
   outer loop
     vertex -3.740132e-01  5.763158e-01  0.000000e+00
     vertex -3.740132e-01  5.763158e-01  1.250000e-01
     vertex -3.750000e-01  5.763158e-01  1.250000e-01
   endloop
 endfacet
 facet normal  1.000000e+00  0.000000e+00  0.000000e+00
   outer loop
     vertex -3.750000e-01  5.763158e-01  1.250000e-01
     vertex -3.750000e-01  4.296875e-01  2.500000e-01
     vertex -3.750000e-01  4.296875e-01  0.000000e+00
   endloop
 endfacet
 facet normal  1.000000e+00  0.000000e+00 -0.000000e+00
   outer loop
     vertex -3.750000e-01  5.763158e-01  1.250000e-01
     vertex -3.750000e-01  5.781250e-01  2.500000e-01
     vertex -3.750000e-01  4.296875e-01  2.500000e-01
   endloop
 endfacet
 facet normal  1.000000e+00  0.000000e+00 -0.000000e+00
   outer loop
     vertex -3.750000e-01  5.781250e-01  1.250000e-01
     vertex -3.750000e-01  5.781250e-01  2.500000e-01
     vertex -3.750000e-01  5.763158e-01  1.250000e-01
   endloop
 endfacet
 facet normal  1.000000e+00  0.000000e+00 -0.000000e+00
   outer loop
     vertex -3.750000e-01  5.763158e-01  0.000000e+00
     vertex -3.750000e-01  5.763158e-01  1.250000e-01
     vertex -3.750000e-01  4.296875e-01  0.000000e+00
   endloop
 endfacet
 facet normal  0.000000e+00  1.000000e+00  0.000000e+00
   outer loop
     vertex -4.687500e-01  5.781250e-01  1.250000e-01
     vertex -3.750000e-01  5.781250e-01  2.500000e-01
     vertex -3.750000e-01  5.781250e-01  1.250000e-01
   endloop
 endfacet
 facet normal  0.000000e+00  1.000000e+00  0.000000e+00
   outer loop
     vertex -4.687500e-01  5.781250e-01  1.250000e-01
     vertex -4.687500e-01  5.781250e-01  2.500000e-01
     vertex -3.750000e-01  5.781250e-01  2.500000e-01
   endloop
 endfacet
 facet normal -1.000000e+00  0.000000e+00  0.000000e+00
   outer loop
     vertex -4.687500e-01  5.781250e-01  1.250000e-01
     vertex -4.687500e-01  7.500000e-01  1.250000e-01
     vertex -4.687500e-01  7.500000e-01  0.000000e+00
   endloop
 endfacet
 facet normal -1.000000e+00  0.000000e+00  0.000000e+00
   outer loop
     vertex -4.687500e-01  4.296875e-01  2.500000e-01
     vertex -4.687500e-01  5.781250e-01  2.500000e-01
     vertex -4.687500e-01  5.781250e-01  1.250000e-01
   endloop
 endfacet
 facet normal -1.000000e+00  0.000000e+00  0.000000e+00
   outer loop
     vertex -4.687500e-01  4.296875e-01  0.000000e+00
     vertex -4.687500e-01  5.781250e-01  1.250000e-01
     vertex -4.687500e-01  7.500000e-01  0.000000e+00
   endloop
 endfacet
 facet normal -1.000000e+00  0.000000e+00  0.000000e+00
   outer loop
     vertex -4.687500e-01  4.296875e-01  0.000000e+00
     vertex -4.687500e-01  4.296875e-01  2.500000e-01
     vertex -4.687500e-01  5.781250e-01  1.250000e-01
   endloop
 endfacet
 facet normal  1.000000e+00  0.000000e+00  0.000000e+00
   outer loop
     vertex -6.348684e-02  5.763158e-01  0.000000e+00
     vertex -6.348684e-02  4.236842e-01  1.250000e-01
     vertex -6.348684e-02  4.236842e-01  0.000000e+00
   endloop
 endfacet
 facet normal  1.000000e+00  0.000000e+00 -0.000000e+00
   outer loop
     vertex -6.348684e-02  5.763158e-01  0.000000e+00
     vertex -6.348684e-02  5.763158e-01  1.250000e-01
     vertex -6.348684e-02  4.236842e-01  1.250000e-01
   endloop
 endfacet
 facet normal  0.000000e+00  1.000000e+00  0.000000e+00
   outer loop
     vertex -6.348684e-02  4.236842e-01  0.000000e+00
     vertex  3.125000e-02  4.236842e-01  1.250000e-01
     vertex  3.125000e-02  4.236842e-01  0.000000e+00
   endloop
 endfacet
 facet normal  0.000000e+00  1.000000e+00  0.000000e+00
   outer loop
     vertex -6.348684e-02  4.236842e-01  0.000000e+00
     vertex -6.348684e-02  4.236842e-01  1.250000e-01
     vertex  3.125000e-02  4.236842e-01  1.250000e-01
   endloop
 endfacet
 facet normal  1.000000e+00  0.000000e+00  0.000000e+00
   outer loop
     vertex  3.125000e-02  4.236842e-01  0.000000e+00
     vertex  3.125000e-02  0.000000e+00  1.250000e-01
     vertex  3.125000e-02  0.000000e+00  0.000000e+00
   endloop
 endfacet
 facet normal  1.000000e+00  0.000000e+00 -0.000000e+00
   outer loop
     vertex  3.125000e-02  4.236842e-01  0.000000e+00
     vertex  3.125000e-02  4.236842e-01  1.250000e-01
     vertex  3.125000e-02  0.000000e+00  1.250000e-01
   endloop
 endfacet
 facet normal  0.000000e+00 -1.000000e+00  0.000000e+00
   outer loop
     vertex  3.125000e-02  0.000000e+00  0.000000e+00
     vertex -4.687500e-01  0.000000e+00  1.250000e-01
     vertex -4.687500e-01  0.000000e+00  0.000000e+00
   endloop
 endfacet
 facet normal  0.000000e+00 -1.000000e+00  0.000000e+00
   outer loop
     vertex  3.125000e-02  0.000000e+00  0.000000e+00
     vertex  3.125000e-02  0.000000e+00  1.250000e-01
     vertex -4.687500e-01  0.000000e+00  1.250000e-01
   endloop
 endfacet
 facet normal -1.000000e+00  0.000000e+00  0.000000e+00
   outer loop
     vertex -4.687500e-01  0.000000e+00  0.000000e+00
     vertex -4.687500e-01  4.236842e-01  1.250000e-01
     vertex -4.687500e-01  4.236842e-01  0.000000e+00
   endloop
 endfacet
 facet normal -1.000000e+00  0.000000e+00  0.000000e+00
   outer loop
     vertex -4.687500e-01  0.000000e+00  0.000000e+00
     vertex -4.687500e-01  0.000000e+00  1.250000e-01
     vertex -4.687500e-01  4.236842e-01  1.250000e-01
   endloop
 endfacet
 facet normal -9.969173e-01 -7.845910e-02  0.000000e+00
   outer loop
     vertex -1.537381e-01  1.361959e-01  0.000000e+00
     vertex -1.529605e-01  1.263158e-01  0.000000e+00
     vertex -1.529605e-01  1.263158e-01  1.250000e-01
   endloop
 endfacet
 facet normal -9.969173e-01 -7.845910e-02  0.000000e+00
   outer loop
     vertex -1.537381e-01  1.361959e-01  0.000000e+00
     vertex -1.529605e-01  1.263158e-01  1.250000e-01
     vertex -1.537381e-01  1.361959e-01  1.250000e-01
   endloop
 endfacet
 facet normal -9.723699e-01 -2.334454e-01  0.000000e+00
   outer loop
     vertex -1.560517e-01  1.458327e-01  0.000000e+00
     vertex -1.537381e-01  1.361959e-01  1.250000e-01
     vertex -1.560517e-01  1.458327e-01  1.250000e-01
   endloop
 endfacet
 facet normal -9.723699e-01 -2.334454e-01  0.000000e+00
   outer loop
     vertex -1.560517e-01  1.458327e-01  0.000000e+00
     vertex -1.537381e-01  1.361959e-01  0.000000e+00
     vertex -1.537381e-01  1.361959e-01  1.250000e-01
   endloop
 endfacet
 facet normal -9.238795e-01 -3.826834e-01  0.000000e+00
   outer loop
     vertex -1.598443e-01  1.549889e-01  0.000000e+00
     vertex -1.560517e-01  1.458327e-01  1.250000e-01
     vertex -1.598443e-01  1.549889e-01  1.250000e-01
   endloop
 endfacet
 facet normal -9.238795e-01 -3.826834e-01  0.000000e+00
   outer loop
     vertex -1.598443e-01  1.549889e-01  0.000000e+00
     vertex -1.560517e-01  1.458327e-01  0.000000e+00
     vertex -1.560517e-01  1.458327e-01  1.250000e-01
   endloop
 endfacet
 facet normal -8.526402e-01 -5.224986e-01  0.000000e+00
   outer loop
     vertex -1.650226e-01  1.634391e-01  0.000000e+00
     vertex -1.598443e-01  1.549889e-01  0.000000e+00
     vertex -1.598443e-01  1.549889e-01  1.250000e-01
   endloop
 endfacet
 facet normal -8.526402e-01 -5.224986e-01  0.000000e+00
   outer loop
     vertex -1.650226e-01  1.634391e-01  0.000000e+00
     vertex -1.598443e-01  1.549889e-01  1.250000e-01
     vertex -1.650226e-01  1.634391e-01  1.250000e-01
   endloop
 endfacet
 facet normal -7.604060e-01 -6.494480e-01  0.000000e+00
   outer loop
     vertex -1.714590e-01  1.709752e-01  0.000000e+00
     vertex -1.650226e-01  1.634391e-01  0.000000e+00
     vertex -1.650226e-01  1.634391e-01  1.250000e-01
   endloop
 endfacet
 facet normal -7.604060e-01 -6.494480e-01  0.000000e+00
   outer loop
     vertex -1.714590e-01  1.709752e-01  0.000000e+00
     vertex -1.650226e-01  1.634391e-01  1.250000e-01
     vertex -1.714590e-01  1.709752e-01  1.250000e-01
   endloop
 endfacet
 facet normal -6.494480e-01 -7.604060e-01  0.000000e+00
   outer loop
     vertex -1.789951e-01  1.774116e-01  0.000000e+00
     vertex -1.714590e-01  1.709752e-01  1.250000e-01
     vertex -1.789951e-01  1.774116e-01  1.250000e-01
   endloop
 endfacet
 facet normal -6.494480e-01 -7.604060e-01  0.000000e+00
   outer loop
     vertex -1.789951e-01  1.774116e-01  0.000000e+00
     vertex -1.714590e-01  1.709752e-01  0.000000e+00
     vertex -1.714590e-01  1.709752e-01  1.250000e-01
   endloop
 endfacet
 facet normal -5.224986e-01 -8.526402e-01  0.000000e+00
   outer loop
     vertex -1.874453e-01  1.825899e-01  0.000000e+00
     vertex -1.789951e-01  1.774116e-01  0.000000e+00
     vertex -1.789951e-01  1.774116e-01  1.250000e-01
   endloop
 endfacet
 facet normal -5.224986e-01 -8.526402e-01  0.000000e+00
   outer loop
     vertex -1.874453e-01  1.825899e-01  0.000000e+00
     vertex -1.789951e-01  1.774116e-01  1.250000e-01
     vertex -1.874453e-01  1.825899e-01  1.250000e-01
   endloop
 endfacet
 facet normal -3.826834e-01 -9.238795e-01  0.000000e+00
   outer loop
     vertex -1.966016e-01  1.863825e-01  0.000000e+00
     vertex -1.874453e-01  1.825899e-01  1.250000e-01
     vertex -1.966016e-01  1.863825e-01  1.250000e-01
   endloop
 endfacet
 facet normal -3.826834e-01 -9.238795e-01  0.000000e+00
   outer loop
     vertex -1.966016e-01  1.863825e-01  0.000000e+00
     vertex -1.874453e-01  1.825899e-01  0.000000e+00
     vertex -1.874453e-01  1.825899e-01  1.250000e-01
   endloop
 endfacet
 facet normal -2.334454e-01 -9.723699e-01  0.000000e+00
   outer loop
     vertex -2.062383e-01  1.886961e-01  0.000000e+00
     vertex -1.966016e-01  1.863825e-01  1.250000e-01
     vertex -2.062383e-01  1.886961e-01  1.250000e-01
   endloop
 endfacet
 facet normal -2.334454e-01 -9.723699e-01  0.000000e+00
   outer loop
     vertex -2.062383e-01  1.886961e-01  0.000000e+00
     vertex -1.966016e-01  1.863825e-01  0.000000e+00
     vertex -1.966016e-01  1.863825e-01  1.250000e-01
   endloop
 endfacet
 facet normal -7.845910e-02 -9.969173e-01  0.000000e+00
   outer loop
     vertex -2.161184e-01  1.894737e-01  0.000000e+00
     vertex -2.062383e-01  1.886961e-01  1.250000e-01
     vertex -2.161184e-01  1.894737e-01  1.250000e-01
   endloop
 endfacet
 facet normal -7.845910e-02 -9.969173e-01  0.000000e+00
   outer loop
     vertex -2.161184e-01  1.894737e-01  0.000000e+00
     vertex -2.062383e-01  1.886961e-01  0.000000e+00
     vertex -2.062383e-01  1.886961e-01  1.250000e-01
   endloop
 endfacet
 facet normal  7.845910e-02 -9.969173e-01  0.000000e+00
   outer loop
     vertex -2.259985e-01  1.886961e-01  0.000000e+00
     vertex -2.161184e-01  1.894737e-01  1.250000e-01
     vertex -2.259985e-01  1.886961e-01  1.250000e-01
   endloop
 endfacet
 facet normal  7.845910e-02 -9.969173e-01  0.000000e+00
   outer loop
     vertex -2.259985e-01  1.886961e-01  0.000000e+00
     vertex -2.161184e-01  1.894737e-01  0.000000e+00
     vertex -2.161184e-01  1.894737e-01  1.250000e-01
   endloop
 endfacet
 facet normal  2.334454e-01 -9.723699e-01  0.000000e+00
   outer loop
     vertex -2.356353e-01  1.863825e-01  0.000000e+00
     vertex -2.259985e-01  1.886961e-01  1.250000e-01
     vertex -2.356353e-01  1.863825e-01  1.250000e-01
   endloop
 endfacet
 facet normal  3.826834e-01 -9.238795e-01  0.000000e+00
   outer loop
     vertex -2.356353e-01  1.863825e-01  0.000000e+00
     vertex -2.356353e-01  1.863825e-01  1.250000e-01
     vertex -2.447915e-01  1.825899e-01  1.250000e-01
   endloop
 endfacet
 facet normal  2.334454e-01 -9.723699e-01  0.000000e+00
   outer loop
     vertex -2.356353e-01  1.863825e-01  0.000000e+00
     vertex -2.259985e-01  1.886961e-01  0.000000e+00
     vertex -2.259985e-01  1.886961e-01  1.250000e-01
   endloop
 endfacet
 facet normal  3.826834e-01 -9.238795e-01  0.000000e+00
   outer loop
     vertex -2.447915e-01  1.825899e-01  0.000000e+00
     vertex -2.356353e-01  1.863825e-01  0.000000e+00
     vertex -2.447915e-01  1.825899e-01  1.250000e-01
   endloop
 endfacet
 facet normal  5.224986e-01 -8.526402e-01  0.000000e+00
   outer loop
     vertex -2.532417e-01  1.774116e-01  0.000000e+00
     vertex -2.447915e-01  1.825899e-01  1.250000e-01
     vertex -2.532417e-01  1.774116e-01  1.250000e-01
   endloop
 endfacet
 facet normal  5.224986e-01 -8.526402e-01  0.000000e+00
   outer loop
     vertex -2.532417e-01  1.774116e-01  0.000000e+00
     vertex -2.447915e-01  1.825899e-01  0.000000e+00
     vertex -2.447915e-01  1.825899e-01  1.250000e-01
   endloop
 endfacet
 facet normal  6.494480e-01 -7.604060e-01  0.000000e+00
   outer loop
     vertex -2.607778e-01  1.709752e-01  0.000000e+00
     vertex -2.532417e-01  1.774116e-01  1.250000e-01
     vertex -2.607778e-01  1.709752e-01  1.250000e-01
   endloop
 endfacet
 facet normal  7.604060e-01 -6.494480e-01  0.000000e+00
   outer loop
     vertex -2.607778e-01  1.709752e-01  0.000000e+00
     vertex -2.607778e-01  1.709752e-01  1.250000e-01
     vertex -2.672142e-01  1.634391e-01  1.250000e-01
   endloop
 endfacet
 facet normal  6.494480e-01 -7.604060e-01  0.000000e+00
   outer loop
     vertex -2.607778e-01  1.709752e-01  0.000000e+00
     vertex -2.532417e-01  1.774116e-01  0.000000e+00
     vertex -2.532417e-01  1.774116e-01  1.250000e-01
   endloop
 endfacet
 facet normal  8.526402e-01 -5.224986e-01  0.000000e+00
   outer loop
     vertex -2.672142e-01  1.634391e-01  0.000000e+00
     vertex -2.672142e-01  1.634391e-01  1.250000e-01
     vertex -2.723925e-01  1.549889e-01  1.250000e-01
   endloop
 endfacet
 facet normal  7.604060e-01 -6.494480e-01  0.000000e+00
   outer loop
     vertex -2.672142e-01  1.634391e-01  0.000000e+00
     vertex -2.607778e-01  1.709752e-01  0.000000e+00
     vertex -2.672142e-01  1.634391e-01  1.250000e-01
   endloop
 endfacet
 facet normal  8.526402e-01 -5.224986e-01  0.000000e+00
   outer loop
     vertex -2.723925e-01  1.549889e-01  0.000000e+00
     vertex -2.672142e-01  1.634391e-01  0.000000e+00
     vertex -2.723925e-01  1.549889e-01  1.250000e-01
   endloop
 endfacet
 facet normal  9.238795e-01 -3.826834e-01  0.000000e+00
   outer loop
     vertex -2.761851e-01  1.458327e-01  0.000000e+00
     vertex -2.723925e-01  1.549889e-01  1.250000e-01
     vertex -2.761851e-01  1.458327e-01  1.250000e-01
   endloop
 endfacet
 facet normal  9.238795e-01 -3.826834e-01  0.000000e+00
   outer loop
     vertex -2.761851e-01  1.458327e-01  0.000000e+00
     vertex -2.723925e-01  1.549889e-01  0.000000e+00
     vertex -2.723925e-01  1.549889e-01  1.250000e-01
   endloop
 endfacet
 facet normal  9.723699e-01 -2.334454e-01  0.000000e+00
   outer loop
     vertex -2.784987e-01  1.361959e-01  0.000000e+00
     vertex -2.761851e-01  1.458327e-01  1.250000e-01
     vertex -2.784987e-01  1.361959e-01  1.250000e-01
   endloop
 endfacet
 facet normal  9.969173e-01 -7.845910e-02  0.000000e+00
   outer loop
     vertex -2.784987e-01  1.361959e-01  0.000000e+00
     vertex -2.784987e-01  1.361959e-01  1.250000e-01
     vertex -2.792763e-01  1.263158e-01  1.250000e-01
   endloop
 endfacet
 facet normal  9.723699e-01 -2.334454e-01  0.000000e+00
   outer loop
     vertex -2.784987e-01  1.361959e-01  0.000000e+00
     vertex -2.761851e-01  1.458327e-01  0.000000e+00
     vertex -2.761851e-01  1.458327e-01  1.250000e-01
   endloop
 endfacet
 facet normal  9.969173e-01 -7.845910e-02  0.000000e+00
   outer loop
     vertex -2.792763e-01  1.263158e-01  0.000000e+00
     vertex -2.784987e-01  1.361959e-01  0.000000e+00
     vertex -2.792763e-01  1.263158e-01  1.250000e-01
   endloop
 endfacet
 facet normal  9.969173e-01  7.845910e-02 -0.000000e+00
   outer loop
     vertex -2.784987e-01  1.164357e-01  0.000000e+00
     vertex -2.792763e-01  1.263158e-01  1.250000e-01
     vertex -2.784987e-01  1.164357e-01  1.250000e-01
   endloop
 endfacet
 facet normal  9.723699e-01  2.334454e-01 -0.000000e+00
   outer loop
     vertex -2.784987e-01  1.164357e-01  0.000000e+00
     vertex -2.784987e-01  1.164357e-01  1.250000e-01
     vertex -2.761851e-01  1.067989e-01  1.250000e-01
   endloop
 endfacet
 facet normal  9.969173e-01  7.845910e-02  0.000000e+00
   outer loop
     vertex -2.784987e-01  1.164357e-01  0.000000e+00
     vertex -2.792763e-01  1.263158e-01  0.000000e+00
     vertex -2.792763e-01  1.263158e-01  1.250000e-01
   endloop
 endfacet
 facet normal  9.723699e-01  2.334454e-01 -0.000000e+00
   outer loop
     vertex -2.761851e-01  1.067989e-01  0.000000e+00
     vertex -2.784987e-01  1.164357e-01  0.000000e+00
     vertex -2.761851e-01  1.067989e-01  1.250000e-01
   endloop
 endfacet
 facet normal  9.238795e-01  3.826834e-01 -0.000000e+00
   outer loop
     vertex -2.723925e-01  9.764271e-02  0.000000e+00
     vertex -2.761851e-01  1.067989e-01  1.250000e-01
     vertex -2.723925e-01  9.764271e-02  1.250000e-01
   endloop
 endfacet
 facet normal  9.238795e-01  3.826834e-01  0.000000e+00
   outer loop
     vertex -2.723925e-01  9.764271e-02  0.000000e+00
     vertex -2.761851e-01  1.067989e-01  0.000000e+00
     vertex -2.761851e-01  1.067989e-01  1.250000e-01
   endloop
 endfacet
 facet normal  8.526402e-01  5.224986e-01 -0.000000e+00
   outer loop
     vertex -2.672142e-01  8.919251e-02  0.000000e+00
     vertex -2.723925e-01  9.764271e-02  1.250000e-01
     vertex -2.672142e-01  8.919251e-02  1.250000e-01
   endloop
 endfacet
 facet normal  8.526402e-01  5.224986e-01  0.000000e+00
   outer loop
     vertex -2.672142e-01  8.919251e-02  0.000000e+00
     vertex -2.723925e-01  9.764271e-02  0.000000e+00
     vertex -2.723925e-01  9.764271e-02  1.250000e-01
   endloop
 endfacet
 facet normal  7.604060e-01  6.494480e-01 -0.000000e+00
   outer loop
     vertex -2.607778e-01  8.165641e-02  0.000000e+00
     vertex -2.672142e-01  8.919251e-02  1.250000e-01
     vertex -2.607778e-01  8.165641e-02  1.250000e-01
   endloop
 endfacet
 facet normal  7.604060e-01  6.494480e-01  0.000000e+00
   outer loop
     vertex -2.607778e-01  8.165641e-02  0.000000e+00
     vertex -2.672142e-01  8.919251e-02  0.000000e+00
     vertex -2.672142e-01  8.919251e-02  1.250000e-01
   endloop
 endfacet
 facet normal  6.494480e-01  7.604060e-01 -0.000000e+00
   outer loop
     vertex -2.532417e-01  7.521998e-02  0.000000e+00
     vertex -2.607778e-01  8.165641e-02  1.250000e-01
     vertex -2.532417e-01  7.521998e-02  1.250000e-01
   endloop
 endfacet
 facet normal  6.494480e-01  7.604060e-01  0.000000e+00
   outer loop
     vertex -2.532417e-01  7.521998e-02  0.000000e+00
     vertex -2.607778e-01  8.165641e-02  0.000000e+00
     vertex -2.607778e-01  8.165641e-02  1.250000e-01
   endloop
 endfacet
 facet normal  5.224986e-01  8.526402e-01 -0.000000e+00
   outer loop
     vertex -2.447915e-01  7.004169e-02  0.000000e+00
     vertex -2.532417e-01  7.521998e-02  1.250000e-01
     vertex -2.447915e-01  7.004169e-02  1.250000e-01
   endloop
 endfacet
 facet normal  5.224986e-01  8.526402e-01  0.000000e+00
   outer loop
     vertex -2.447915e-01  7.004169e-02  0.000000e+00
     vertex -2.532417e-01  7.521998e-02  0.000000e+00
     vertex -2.532417e-01  7.521998e-02  1.250000e-01
   endloop
 endfacet
 facet normal  3.826834e-01  9.238795e-01 -0.000000e+00
   outer loop
     vertex -2.356353e-01  6.624906e-02  0.000000e+00
     vertex -2.447915e-01  7.004169e-02  1.250000e-01
     vertex -2.356353e-01  6.624906e-02  1.250000e-01
   endloop
 endfacet
 facet normal  3.826834e-01  9.238795e-01  0.000000e+00
   outer loop
     vertex -2.356353e-01  6.624906e-02  0.000000e+00
     vertex -2.447915e-01  7.004169e-02  0.000000e+00
     vertex -2.447915e-01  7.004169e-02  1.250000e-01
   endloop
 endfacet
 facet normal  2.334454e-01  9.723699e-01 -0.000000e+00
   outer loop
     vertex -2.259985e-01  6.393547e-02  0.000000e+00
     vertex -2.356353e-01  6.624906e-02  1.250000e-01
     vertex -2.259985e-01  6.393547e-02  1.250000e-01
   endloop
 endfacet
 facet normal  2.334454e-01  9.723699e-01  0.000000e+00
   outer loop
     vertex -2.259985e-01  6.393547e-02  0.000000e+00
     vertex -2.356353e-01  6.624906e-02  0.000000e+00
     vertex -2.356353e-01  6.624906e-02  1.250000e-01
   endloop
 endfacet
 facet normal  7.845910e-02  9.969173e-01  0.000000e+00
   outer loop
     vertex -2.161184e-01  6.315789e-02  0.000000e+00
     vertex -2.259985e-01  6.393547e-02  0.000000e+00
     vertex -2.259985e-01  6.393547e-02  1.250000e-01
   endloop
 endfacet
 facet normal  7.845910e-02  9.969173e-01 -0.000000e+00
   outer loop
     vertex -2.161184e-01  6.315789e-02  0.000000e+00
     vertex -2.259985e-01  6.393547e-02  1.250000e-01
     vertex -2.161184e-01  6.315789e-02  1.250000e-01
   endloop
 endfacet
 facet normal -7.845910e-02  9.969173e-01  0.000000e+00
   outer loop
     vertex -2.161184e-01  6.315789e-02  0.000000e+00
     vertex -2.161184e-01  6.315789e-02  1.250000e-01
     vertex -2.062383e-01  6.393547e-02  1.250000e-01
   endloop
 endfacet
 facet normal -7.845910e-02  9.969173e-01  0.000000e+00
   outer loop
     vertex -2.062383e-01  6.393547e-02  0.000000e+00
     vertex -2.161184e-01  6.315789e-02  0.000000e+00
     vertex -2.062383e-01  6.393547e-02  1.250000e-01
   endloop
 endfacet
 facet normal -2.334454e-01  9.723699e-01  0.000000e+00
   outer loop
     vertex -1.966016e-01  6.624906e-02  0.000000e+00
     vertex -2.062383e-01  6.393547e-02  0.000000e+00
     vertex -2.062383e-01  6.393547e-02  1.250000e-01
   endloop
 endfacet
 facet normal -2.334454e-01  9.723699e-01  0.000000e+00
   outer loop
     vertex -1.966016e-01  6.624906e-02  0.000000e+00
     vertex -2.062383e-01  6.393547e-02  1.250000e-01
     vertex -1.966016e-01  6.624906e-02  1.250000e-01
   endloop
 endfacet
 facet normal -3.826834e-01  9.238795e-01  0.000000e+00
   outer loop
     vertex -1.874453e-01  7.004169e-02  0.000000e+00
     vertex -1.966016e-01  6.624906e-02  0.000000e+00
     vertex -1.966016e-01  6.624906e-02  1.250000e-01
   endloop
 endfacet
 facet normal -3.826834e-01  9.238795e-01  0.000000e+00
   outer loop
     vertex -1.874453e-01  7.004169e-02  0.000000e+00
     vertex -1.966016e-01  6.624906e-02  1.250000e-01
     vertex -1.874453e-01  7.004169e-02  1.250000e-01
   endloop
 endfacet
 facet normal -5.224986e-01  8.526402e-01  0.000000e+00
   outer loop
     vertex -1.789951e-01  7.521998e-02  0.000000e+00
     vertex -1.874453e-01  7.004169e-02  0.000000e+00
     vertex -1.874453e-01  7.004169e-02  1.250000e-01
   endloop
 endfacet
 facet normal -5.224986e-01  8.526402e-01  0.000000e+00
   outer loop
     vertex -1.789951e-01  7.521998e-02  0.000000e+00
     vertex -1.874453e-01  7.004169e-02  1.250000e-01
     vertex -1.789951e-01  7.521998e-02  1.250000e-01
   endloop
 endfacet
 facet normal -6.494480e-01  7.604060e-01  0.000000e+00
   outer loop
     vertex -1.714590e-01  8.165641e-02  0.000000e+00
     vertex -1.789951e-01  7.521998e-02  0.000000e+00
     vertex -1.789951e-01  7.521998e-02  1.250000e-01
   endloop
 endfacet
 facet normal -6.494480e-01  7.604060e-01  0.000000e+00
   outer loop
     vertex -1.714590e-01  8.165641e-02  0.000000e+00
     vertex -1.789951e-01  7.521998e-02  1.250000e-01
     vertex -1.714590e-01  8.165641e-02  1.250000e-01
   endloop
 endfacet
 facet normal -7.604060e-01  6.494480e-01  0.000000e+00
   outer loop
     vertex -1.650226e-01  8.919251e-02  0.000000e+00
     vertex -1.714590e-01  8.165641e-02  0.000000e+00
     vertex -1.714590e-01  8.165641e-02  1.250000e-01
   endloop
 endfacet
 facet normal -7.604060e-01  6.494480e-01  0.000000e+00
   outer loop
     vertex -1.650226e-01  8.919251e-02  0.000000e+00
     vertex -1.714590e-01  8.165641e-02  1.250000e-01
     vertex -1.650226e-01  8.919251e-02  1.250000e-01
   endloop
 endfacet
 facet normal -8.526402e-01  5.224986e-01  0.000000e+00
   outer loop
     vertex -1.598443e-01  9.764271e-02  0.000000e+00
     vertex -1.650226e-01  8.919251e-02  0.000000e+00
     vertex -1.650226e-01  8.919251e-02  1.250000e-01
   endloop
 endfacet
 facet normal -8.526402e-01  5.224986e-01  0.000000e+00
   outer loop
     vertex -1.598443e-01  9.764271e-02  0.000000e+00
     vertex -1.650226e-01  8.919251e-02  1.250000e-01
     vertex -1.598443e-01  9.764271e-02  1.250000e-01
   endloop
 endfacet
 facet normal -9.238795e-01  3.826834e-01  0.000000e+00
   outer loop
     vertex -1.560517e-01  1.067989e-01  0.000000e+00
     vertex -1.598443e-01  9.764271e-02  0.000000e+00
     vertex -1.598443e-01  9.764271e-02  1.250000e-01
   endloop
 endfacet
 facet normal -9.238795e-01  3.826834e-01  0.000000e+00
   outer loop
     vertex -1.560517e-01  1.067989e-01  0.000000e+00
     vertex -1.598443e-01  9.764271e-02  1.250000e-01
     vertex -1.560517e-01  1.067989e-01  1.250000e-01
   endloop
 endfacet
 facet normal -9.723699e-01  2.334454e-01  0.000000e+00
   outer loop
     vertex -1.537381e-01  1.164357e-01  0.000000e+00
     vertex -1.560517e-01  1.067989e-01  0.000000e+00
     vertex -1.560517e-01  1.067989e-01  1.250000e-01
   endloop
 endfacet
 facet normal -9.723699e-01  2.334454e-01  0.000000e+00
   outer loop
     vertex -1.537381e-01  1.164357e-01  0.000000e+00
     vertex -1.560517e-01  1.067989e-01  1.250000e-01
     vertex -1.537381e-01  1.164357e-01  1.250000e-01
   endloop
 endfacet
 facet normal -9.969173e-01  7.845910e-02  0.000000e+00
   outer loop
     vertex -1.529605e-01  1.263158e-01  0.000000e+00
     vertex -1.537381e-01  1.164357e-01  1.250000e-01
     vertex -1.529605e-01  1.263158e-01  1.250000e-01
   endloop
 endfacet
 facet normal -9.969173e-01  7.845910e-02  0.000000e+00
   outer loop
     vertex -1.529605e-01  1.263158e-01  0.000000e+00
     vertex -1.537381e-01  1.164357e-01  0.000000e+00
     vertex -1.537381e-01  1.164357e-01  1.250000e-01
   endloop
 endfacet
 facet normal -9.963975e-01 -8.480592e-02  0.000000e+00
   outer loop
     vertex -1.590564e-01  5.124158e-01  0.000000e+00
     vertex -1.582237e-01  5.026316e-01  0.000000e+00
     vertex -1.582237e-01  5.026316e-01  1.250000e-01
   endloop
 endfacet
 facet normal -9.963975e-01 -8.480592e-02  0.000000e+00
   outer loop
     vertex -1.590564e-01  5.124158e-01  0.000000e+00
     vertex -1.582237e-01  5.026316e-01  1.250000e-01
     vertex -1.590564e-01  5.124158e-01  1.250000e-01
   endloop
 endfacet
 facet normal -9.677329e-01 -2.519781e-01  0.000000e+00
   outer loop
     vertex -1.615308e-01  5.219186e-01  0.000000e+00
     vertex -1.590564e-01  5.124158e-01  1.250000e-01
     vertex -1.615308e-01  5.219186e-01  1.250000e-01
   endloop
 endfacet
 facet normal -9.677329e-01 -2.519781e-01  0.000000e+00
   outer loop
     vertex -1.615308e-01  5.219186e-01  0.000000e+00
     vertex -1.590564e-01  5.124158e-01  0.000000e+00
     vertex -1.590564e-01  5.124158e-01  1.250000e-01
   endloop
 endfacet
 facet normal -9.112285e-01 -4.119012e-01  0.000000e+00
   outer loop
     vertex -1.655755e-01  5.308665e-01  0.000000e+00
     vertex -1.615308e-01  5.219186e-01  1.250000e-01
     vertex -1.655755e-01  5.308665e-01  1.250000e-01
   endloop
 endfacet
 facet normal -9.112285e-01 -4.119012e-01  0.000000e+00
   outer loop
     vertex -1.655755e-01  5.308665e-01  0.000000e+00
     vertex -1.615308e-01  5.219186e-01  0.000000e+00
     vertex -1.615308e-01  5.219186e-01  1.250000e-01
   endloop
 endfacet
 facet normal -8.285096e-01 -5.599748e-01  0.000000e+00
   outer loop
     vertex -1.710742e-01  5.390022e-01  0.000000e+00
     vertex -1.655755e-01  5.308665e-01  1.250000e-01
     vertex -1.710742e-01  5.390022e-01  1.250000e-01
   endloop
 endfacet
 facet normal -8.285096e-01 -5.599748e-01  0.000000e+00
   outer loop
     vertex -1.710742e-01  5.390022e-01  0.000000e+00
     vertex -1.655755e-01  5.308665e-01  0.000000e+00
     vertex -1.655755e-01  5.308665e-01  1.250000e-01
   endloop
 endfacet
 facet normal -7.219561e-01 -6.919389e-01  0.000000e+00
   outer loop
     vertex -1.778688e-01  5.460916e-01  0.000000e+00
     vertex -1.710742e-01  5.390022e-01  1.250000e-01
     vertex -1.778688e-01  5.460916e-01  1.250000e-01
   endloop
 endfacet
 facet normal -7.219561e-01 -6.919389e-01  0.000000e+00
   outer loop
     vertex -1.778688e-01  5.460916e-01  0.000000e+00
     vertex -1.710742e-01  5.390022e-01  0.000000e+00
     vertex -1.710742e-01  5.390022e-01  1.250000e-01
   endloop
 endfacet
 facet normal -5.946332e-01 -8.039971e-01  0.000000e+00
   outer loop
     vertex -1.857638e-01  5.519306e-01  0.000000e+00
     vertex -1.778688e-01  5.460916e-01  0.000000e+00
     vertex -1.778688e-01  5.460916e-01  1.250000e-01
   endloop
 endfacet
 facet normal -5.946332e-01 -8.039971e-01  0.000000e+00
   outer loop
     vertex -1.857638e-01  5.519306e-01  0.000000e+00
     vertex -1.778688e-01  5.460916e-01  1.250000e-01
     vertex -1.857638e-01  5.519306e-01  1.250000e-01
   endloop
 endfacet
 facet normal -4.502037e-01 -8.929259e-01  0.000000e+00
   outer loop
     vertex -1.945320e-01  5.563515e-01  0.000000e+00
     vertex -1.857638e-01  5.519306e-01  0.000000e+00
     vertex -1.857638e-01  5.519306e-01  1.250000e-01
   endloop
 endfacet
 facet normal -4.502037e-01 -8.929259e-01  0.000000e+00
   outer loop
     vertex -1.945320e-01  5.563515e-01  0.000000e+00
     vertex -1.857638e-01  5.519306e-01  1.250000e-01
     vertex -1.945320e-01  5.563515e-01  1.250000e-01
   endloop
 endfacet
 facet normal -2.928228e-01 -9.561667e-01  0.000000e+00
   outer loop
     vertex -2.039212e-01  5.592269e-01  0.000000e+00
     vertex -1.945320e-01  5.563515e-01  1.250000e-01
     vertex -2.039212e-01  5.592269e-01  1.250000e-01
   endloop
 endfacet
 facet normal -2.928228e-01 -9.561667e-01  0.000000e+00
   outer loop
     vertex -2.039212e-01  5.592269e-01  0.000000e+00
     vertex -1.945320e-01  5.563515e-01  0.000000e+00
     vertex -1.945320e-01  5.563515e-01  1.250000e-01
   endloop
 endfacet
 facet normal -1.270178e-01 -9.919004e-01  0.000000e+00
   outer loop
     vertex -2.136613e-01  5.604742e-01  0.000000e+00
     vertex -2.039212e-01  5.592269e-01  0.000000e+00
     vertex -2.039212e-01  5.592269e-01  1.250000e-01
   endloop
 endfacet
 facet normal -1.270178e-01 -9.919004e-01  0.000000e+00
   outer loop
     vertex -2.136613e-01  5.604742e-01  0.000000e+00
     vertex -2.039212e-01  5.592269e-01  1.250000e-01
     vertex -2.136613e-01  5.604742e-01  1.250000e-01
   endloop
 endfacet
 facet normal  4.244120e-02 -9.990990e-01  0.000000e+00
   outer loop
     vertex -2.234721e-01  5.600574e-01  0.000000e+00
     vertex -2.136613e-01  5.604742e-01  1.250000e-01
     vertex -2.234721e-01  5.600574e-01  1.250000e-01
   endloop
 endfacet
 facet normal  4.244120e-02 -9.990990e-01  0.000000e+00
   outer loop
     vertex -2.234721e-01  5.600574e-01  0.000000e+00
     vertex -2.136613e-01  5.604742e-01  0.000000e+00
     vertex -2.136613e-01  5.604742e-01  1.250000e-01
   endloop
 endfacet
 facet normal  2.106793e-01 -9.775552e-01  0.000000e+00
   outer loop
     vertex -2.330713e-01  5.579886e-01  0.000000e+00
     vertex -2.234721e-01  5.600574e-01  1.250000e-01
     vertex -2.330713e-01  5.579886e-01  1.250000e-01
   endloop
 endfacet
 facet normal  2.106793e-01 -9.775552e-01  0.000000e+00
   outer loop
     vertex -2.330713e-01  5.579886e-01  0.000000e+00
     vertex -2.234721e-01  5.600574e-01  0.000000e+00
     vertex -2.234721e-01  5.600574e-01  1.250000e-01
   endloop
 endfacet
 facet normal  3.728565e-01 -9.278890e-01  0.000000e+00
   outer loop
     vertex -2.421828e-01  5.543273e-01  0.000000e+00
     vertex -2.330713e-01  5.579886e-01  1.250000e-01
     vertex -2.421828e-01  5.543273e-01  1.250000e-01
   endloop
 endfacet
 facet normal  3.728565e-01 -9.278890e-01  0.000000e+00
   outer loop
     vertex -2.421828e-01  5.543273e-01  0.000000e+00
     vertex -2.330713e-01  5.579886e-01  0.000000e+00
     vertex -2.330713e-01  5.579886e-01  1.250000e-01
   endloop
 endfacet
 facet normal  5.243073e-01 -8.515291e-01  0.000000e+00
   outer loop
     vertex -2.505446e-01  5.491788e-01  0.000000e+00
     vertex -2.421828e-01  5.543273e-01  1.250000e-01
     vertex -2.505446e-01  5.491788e-01  1.250000e-01
   endloop
 endfacet
 facet normal  5.243073e-01 -8.515291e-01  0.000000e+00
   outer loop
     vertex -2.505446e-01  5.491788e-01  0.000000e+00
     vertex -2.421828e-01  5.543273e-01  0.000000e+00
     vertex -2.421828e-01  5.543273e-01  1.250000e-01
   endloop
 endfacet
 facet normal  6.606747e-01 -7.506723e-01  0.000000e+00
   outer loop
     vertex -2.579159e-01  5.426912e-01  0.000000e+00
     vertex -2.505446e-01  5.491788e-01  1.250000e-01
     vertex -2.579159e-01  5.426912e-01  1.250000e-01
   endloop
 endfacet
 facet normal  6.606747e-01 -7.506723e-01  0.000000e+00
   outer loop
     vertex -2.579159e-01  5.426912e-01  0.000000e+00
     vertex -2.505446e-01  5.491788e-01  0.000000e+00
     vertex -2.505446e-01  5.491788e-01  1.250000e-01
   endloop
 endfacet
 facet normal  7.780358e-01 -6.282200e-01  0.000000e+00
   outer loop
     vertex -2.640848e-01  5.350512e-01  0.000000e+00
     vertex -2.579159e-01  5.426912e-01  1.250000e-01
     vertex -2.640848e-01  5.350512e-01  1.250000e-01
   endloop
 endfacet
 facet normal  7.780358e-01 -6.282200e-01  0.000000e+00
   outer loop
     vertex -2.640848e-01  5.350512e-01  0.000000e+00
     vertex -2.579159e-01  5.426912e-01  0.000000e+00
     vertex -2.579159e-01  5.426912e-01  1.250000e-01
   endloop
 endfacet
 facet normal  8.730141e-01 -4.876949e-01  0.000000e+00
   outer loop
     vertex -2.688738e-01  5.264785e-01  0.000000e+00
     vertex -2.640848e-01  5.350512e-01  1.250000e-01
     vertex -2.688738e-01  5.264785e-01  1.250000e-01
   endloop
 endfacet
 facet normal  8.730141e-01 -4.876949e-01  0.000000e+00
   outer loop
     vertex -2.688738e-01  5.264785e-01  0.000000e+00
     vertex -2.640848e-01  5.350512e-01  0.000000e+00
     vertex -2.640848e-01  5.350512e-01  1.250000e-01
   endloop
 endfacet
 facet normal  9.428774e-01 -3.331398e-01  0.000000e+00
   outer loop
     vertex -2.721451e-01  5.172198e-01  0.000000e+00
     vertex -2.688738e-01  5.264785e-01  1.250000e-01
     vertex -2.721451e-01  5.172198e-01  1.250000e-01
   endloop
 endfacet
 facet normal  9.428774e-01 -3.331398e-01  0.000000e+00
   outer loop
     vertex -2.721451e-01  5.172198e-01  0.000000e+00
     vertex -2.688738e-01  5.264785e-01  0.000000e+00
     vertex -2.688738e-01  5.264785e-01  1.250000e-01
   endloop
 endfacet
 facet normal  9.856159e-01 -1.690008e-01  0.000000e+00
   outer loop
     vertex -2.738046e-01  5.075414e-01  0.000000e+00
     vertex -2.721451e-01  5.172198e-01  1.250000e-01
     vertex -2.738046e-01  5.075414e-01  1.250000e-01
   endloop
 endfacet
 facet normal  9.856159e-01 -1.690008e-01  0.000000e+00
   outer loop
     vertex -2.738046e-01  5.075414e-01  0.000000e+00
     vertex -2.721451e-01  5.172198e-01  0.000000e+00
     vertex -2.721451e-01  5.172198e-01  1.250000e-01
   endloop
 endfacet
 facet normal  1.000000e+00  0.000000e+00  0.000000e+00
   outer loop
     vertex -2.738046e-01  4.977218e-01  0.000000e+00
     vertex -2.738046e-01  5.075414e-01  1.250000e-01
     vertex -2.738046e-01  4.977218e-01  1.250000e-01
   endloop
 endfacet
 facet normal  9.856159e-01  1.690008e-01 -0.000000e+00
   outer loop
     vertex -2.738046e-01  4.977218e-01  0.000000e+00
     vertex -2.738046e-01  4.977218e-01  1.250000e-01
     vertex -2.721451e-01  4.880434e-01  1.250000e-01
   endloop
 endfacet
 facet normal  1.000000e+00  0.000000e+00  0.000000e+00
   outer loop
     vertex -2.738046e-01  4.977218e-01  0.000000e+00
     vertex -2.738046e-01  5.075414e-01  0.000000e+00
     vertex -2.738046e-01  5.075414e-01  1.250000e-01
   endloop
 endfacet
 facet normal  9.856159e-01  1.690008e-01 -0.000000e+00
   outer loop
     vertex -2.721451e-01  4.880434e-01  0.000000e+00
     vertex -2.738046e-01  4.977218e-01  0.000000e+00
     vertex -2.721451e-01  4.880434e-01  1.250000e-01
   endloop
 endfacet
 facet normal  9.428774e-01  3.331398e-01 -0.000000e+00
   outer loop
     vertex -2.688738e-01  4.787847e-01  0.000000e+00
     vertex -2.721451e-01  4.880434e-01  1.250000e-01
     vertex -2.688738e-01  4.787847e-01  1.250000e-01
   endloop
 endfacet
 facet normal  9.428774e-01  3.331398e-01  0.000000e+00
   outer loop
     vertex -2.688738e-01  4.787847e-01  0.000000e+00
     vertex -2.721451e-01  4.880434e-01  0.000000e+00
     vertex -2.721451e-01  4.880434e-01  1.250000e-01
   endloop
 endfacet
 facet normal  8.730141e-01  4.876949e-01 -0.000000e+00
   outer loop
     vertex -2.640848e-01  4.702120e-01  0.000000e+00
     vertex -2.688738e-01  4.787847e-01  1.250000e-01
     vertex -2.640848e-01  4.702120e-01  1.250000e-01
   endloop
 endfacet
 facet normal  8.730141e-01  4.876949e-01  0.000000e+00
   outer loop
     vertex -2.640848e-01  4.702120e-01  0.000000e+00
     vertex -2.688738e-01  4.787847e-01  0.000000e+00
     vertex -2.688738e-01  4.787847e-01  1.250000e-01
   endloop
 endfacet
 facet normal  7.780358e-01  6.282200e-01 -0.000000e+00
   outer loop
     vertex -2.579159e-01  4.625720e-01  0.000000e+00
     vertex -2.640848e-01  4.702120e-01  1.250000e-01
     vertex -2.579159e-01  4.625720e-01  1.250000e-01
   endloop
 endfacet
 facet normal  7.780358e-01  6.282200e-01  0.000000e+00
   outer loop
     vertex -2.579159e-01  4.625720e-01  0.000000e+00
     vertex -2.640848e-01  4.702120e-01  0.000000e+00
     vertex -2.640848e-01  4.702120e-01  1.250000e-01
   endloop
 endfacet
 facet normal  6.606747e-01  7.506723e-01 -0.000000e+00
   outer loop
     vertex -2.505446e-01  4.560844e-01  0.000000e+00
     vertex -2.579159e-01  4.625720e-01  1.250000e-01
     vertex -2.505446e-01  4.560844e-01  1.250000e-01
   endloop
 endfacet
 facet normal  6.606747e-01  7.506723e-01  0.000000e+00
   outer loop
     vertex -2.505446e-01  4.560844e-01  0.000000e+00
     vertex -2.579159e-01  4.625720e-01  0.000000e+00
     vertex -2.579159e-01  4.625720e-01  1.250000e-01
   endloop
 endfacet
 facet normal  5.243073e-01  8.515291e-01 -0.000000e+00
   outer loop
     vertex -2.421828e-01  4.509359e-01  0.000000e+00
     vertex -2.505446e-01  4.560844e-01  1.250000e-01
     vertex -2.421828e-01  4.509359e-01  1.250000e-01
   endloop
 endfacet
 facet normal  5.243073e-01  8.515291e-01  0.000000e+00
   outer loop
     vertex -2.421828e-01  4.509359e-01  0.000000e+00
     vertex -2.505446e-01  4.560844e-01  0.000000e+00
     vertex -2.505446e-01  4.560844e-01  1.250000e-01
   endloop
 endfacet
 facet normal  3.728565e-01  9.278890e-01 -0.000000e+00
   outer loop
     vertex -2.330713e-01  4.472746e-01  0.000000e+00
     vertex -2.421828e-01  4.509359e-01  1.250000e-01
     vertex -2.330713e-01  4.472746e-01  1.250000e-01
   endloop
 endfacet
 facet normal  3.728565e-01  9.278890e-01  0.000000e+00
   outer loop
     vertex -2.330713e-01  4.472746e-01  0.000000e+00
     vertex -2.421828e-01  4.509359e-01  0.000000e+00
     vertex -2.421828e-01  4.509359e-01  1.250000e-01
   endloop
 endfacet
 facet normal  2.106793e-01  9.775552e-01 -0.000000e+00
   outer loop
     vertex -2.234721e-01  4.452058e-01  0.000000e+00
     vertex -2.330713e-01  4.472746e-01  1.250000e-01
     vertex -2.234721e-01  4.452058e-01  1.250000e-01
   endloop
 endfacet
 facet normal  2.106793e-01  9.775552e-01  0.000000e+00
   outer loop
     vertex -2.234721e-01  4.452058e-01  0.000000e+00
     vertex -2.330713e-01  4.472746e-01  0.000000e+00
     vertex -2.330713e-01  4.472746e-01  1.250000e-01
   endloop
 endfacet
 facet normal  4.244120e-02  9.990990e-01 -0.000000e+00
   outer loop
     vertex -2.136613e-01  4.447890e-01  0.000000e+00
     vertex -2.234721e-01  4.452058e-01  1.250000e-01
     vertex -2.136613e-01  4.447890e-01  1.250000e-01
   endloop
 endfacet
 facet normal  4.244120e-02  9.990990e-01  0.000000e+00
   outer loop
     vertex -2.136613e-01  4.447890e-01  0.000000e+00
     vertex -2.234721e-01  4.452058e-01  0.000000e+00
     vertex -2.234721e-01  4.452058e-01  1.250000e-01
   endloop
 endfacet
 facet normal -1.270178e-01  9.919004e-01  0.000000e+00
   outer loop
     vertex -2.039212e-01  4.460363e-01  0.000000e+00
     vertex -2.136613e-01  4.447890e-01  1.250000e-01
     vertex -2.039212e-01  4.460363e-01  1.250000e-01
   endloop
 endfacet
 facet normal -1.270178e-01  9.919004e-01  0.000000e+00
   outer loop
     vertex -2.039212e-01  4.460363e-01  0.000000e+00
     vertex -2.136613e-01  4.447890e-01  0.000000e+00
     vertex -2.136613e-01  4.447890e-01  1.250000e-01
   endloop
 endfacet
 facet normal -2.928228e-01  9.561667e-01  0.000000e+00
   outer loop
     vertex -1.945320e-01  4.489117e-01  0.000000e+00
     vertex -2.039212e-01  4.460363e-01  1.250000e-01
     vertex -1.945320e-01  4.489117e-01  1.250000e-01
   endloop
 endfacet
 facet normal -2.928228e-01  9.561667e-01  0.000000e+00
   outer loop
     vertex -1.945320e-01  4.489117e-01  0.000000e+00
     vertex -2.039212e-01  4.460363e-01  0.000000e+00
     vertex -2.039212e-01  4.460363e-01  1.250000e-01
   endloop
 endfacet
 facet normal -4.502037e-01  8.929259e-01  0.000000e+00
   outer loop
     vertex -1.857638e-01  4.533325e-01  0.000000e+00
     vertex -1.945320e-01  4.489117e-01  0.000000e+00
     vertex -1.945320e-01  4.489117e-01  1.250000e-01
   endloop
 endfacet
 facet normal -4.502037e-01  8.929259e-01  0.000000e+00
   outer loop
     vertex -1.857638e-01  4.533325e-01  0.000000e+00
     vertex -1.945320e-01  4.489117e-01  1.250000e-01
     vertex -1.857638e-01  4.533325e-01  1.250000e-01
   endloop
 endfacet
 facet normal -5.946332e-01  8.039971e-01  0.000000e+00
   outer loop
     vertex -1.778688e-01  4.591716e-01  0.000000e+00
     vertex -1.857638e-01  4.533325e-01  0.000000e+00
     vertex -1.857638e-01  4.533325e-01  1.250000e-01
   endloop
 endfacet
 facet normal -5.946332e-01  8.039971e-01  0.000000e+00
   outer loop
     vertex -1.778688e-01  4.591716e-01  0.000000e+00
     vertex -1.857638e-01  4.533325e-01  1.250000e-01
     vertex -1.778688e-01  4.591716e-01  1.250000e-01
   endloop
 endfacet
 facet normal -7.219561e-01  6.919389e-01  0.000000e+00
   outer loop
     vertex -1.710742e-01  4.662609e-01  0.000000e+00
     vertex -1.778688e-01  4.591716e-01  0.000000e+00
     vertex -1.778688e-01  4.591716e-01  1.250000e-01
   endloop
 endfacet
 facet normal -7.219561e-01  6.919389e-01  0.000000e+00
   outer loop
     vertex -1.710742e-01  4.662609e-01  0.000000e+00
     vertex -1.778688e-01  4.591716e-01  1.250000e-01
     vertex -1.710742e-01  4.662609e-01  1.250000e-01
   endloop
 endfacet
 facet normal -8.285096e-01  5.599748e-01  0.000000e+00
   outer loop
     vertex -1.655755e-01  4.743966e-01  0.000000e+00
     vertex -1.710742e-01  4.662609e-01  0.000000e+00
     vertex -1.710742e-01  4.662609e-01  1.250000e-01
   endloop
 endfacet
 facet normal -8.285096e-01  5.599748e-01  0.000000e+00
   outer loop
     vertex -1.655755e-01  4.743966e-01  0.000000e+00
     vertex -1.710742e-01  4.662609e-01  1.250000e-01
     vertex -1.655755e-01  4.743966e-01  1.250000e-01
   endloop
 endfacet
 facet normal -9.112285e-01  4.119012e-01  0.000000e+00
   outer loop
     vertex -1.615308e-01  4.833445e-01  0.000000e+00
     vertex -1.655755e-01  4.743966e-01  0.000000e+00
     vertex -1.655755e-01  4.743966e-01  1.250000e-01
   endloop
 endfacet
 facet normal -9.112285e-01  4.119012e-01  0.000000e+00
   outer loop
     vertex -1.615308e-01  4.833445e-01  0.000000e+00
     vertex -1.655755e-01  4.743966e-01  1.250000e-01
     vertex -1.615308e-01  4.833445e-01  1.250000e-01
   endloop
 endfacet
 facet normal -9.677329e-01  2.519781e-01  0.000000e+00
   outer loop
     vertex -1.590564e-01  4.928473e-01  0.000000e+00
     vertex -1.615308e-01  4.833445e-01  0.000000e+00
     vertex -1.615308e-01  4.833445e-01  1.250000e-01
   endloop
 endfacet
 facet normal -9.677329e-01  2.519781e-01  0.000000e+00
   outer loop
     vertex -1.590564e-01  4.928473e-01  0.000000e+00
     vertex -1.615308e-01  4.833445e-01  1.250000e-01
     vertex -1.590564e-01  4.928473e-01  1.250000e-01
   endloop
 endfacet
 facet normal -9.963975e-01  8.480592e-02  0.000000e+00
   outer loop
     vertex -1.582237e-01  5.026316e-01  0.000000e+00
     vertex -1.590564e-01  4.928473e-01  0.000000e+00
     vertex -1.590564e-01  4.928473e-01  1.250000e-01
   endloop
 endfacet
 facet normal -9.963975e-01  8.480592e-02  0.000000e+00
   outer loop
     vertex -1.582237e-01  5.026316e-01  0.000000e+00
     vertex -1.590564e-01  4.928473e-01  1.250000e-01
     vertex -1.582237e-01  5.026316e-01  1.250000e-01
   endloop
 endfacet
 facet normal  0.000000e+00 -1.000000e+00  0.000000e+00
   outer loop
     vertex -3.750000e-01  4.296875e-01  0.000000e+00
     vertex -4.687500e-01  4.296875e-01  2.500000e-01
     vertex -4.687500e-01  4.296875e-01  0.000000e+00
   endloop
 endfacet
 facet normal  0.000000e+00 -1.000000e+00  0.000000e+00
   outer loop
     vertex -3.750000e-01  4.296875e-01  0.000000e+00
     vertex -3.750000e-01  4.296875e-01  2.500000e-01
     vertex -4.687500e-01  4.296875e-01  2.500000e-01
   endloop
 endfacet
 facet normal  0.000000e+00  0.000000e+00  1.000000e+00
   outer loop
     vertex -3.750000e-01  5.781250e-01  2.500000e-01
     vertex -4.687500e-01  5.781250e-01  2.500000e-01
     vertex -4.687500e-01  4.296875e-01  2.500000e-01
   endloop
 endfacet
 facet normal  0.000000e+00  0.000000e+00  1.000000e+00
   outer loop
     vertex -3.750000e-01  5.781250e-01  2.500000e-01
     vertex -4.687500e-01  4.296875e-01  2.500000e-01
     vertex -3.750000e-01  4.296875e-01  2.500000e-01
   endloop
 endfacet
endsolid
