solid 
 facet normal  7.881919e-33 -7.401487e-17 -1.000000e+00
   outer loop
     vertex -2.343750e-02  1.913511e-17  1.562500e-01
     vertex -2.031250e-01 -7.500000e-01  1.562500e-01
     vertex -2.031250e-01  0.000000e+00  1.562500e-01
   endloop
 endfacet
 facet normal  0.000000e+00 -7.401487e-17 -1.000000e+00
   outer loop
     vertex -2.343750e-02  1.913511e-17  1.562500e-01
     vertex -2.343750e-02 -7.500000e-01  1.562500e-01
     vertex -2.031250e-01 -7.500000e-01  1.562500e-01
   endloop
 endfacet
 facet normal -1.064910e-16  1.000000e+00 -6.123234e-17
   outer loop
     vertex -2.343750e-02  1.913511e-17  1.562500e-01
     vertex -2.031250e-01  0.000000e+00  1.562500e-01
     vertex -2.031250e-01  4.003266e-18  2.216283e-01
   endloop
 endfacet
 facet normal -6.123234e-17  1.000000e+00  6.315789e-17
   outer loop
     vertex  1.603618e-02  2.155217e-17  1.562500e-01
     vertex -2.343750e-02  1.913511e-17  1.562500e-01
     vertex -2.031250e-01  4.003266e-18  2.216283e-01
   endloop
 endfacet
 facet normal -6.123234e-17  1.000000e+00  6.315789e-17
   outer loop
     vertex  2.109375e-01  2.935728e-17  2.216283e-01
     vertex  1.603618e-02  2.155217e-17  1.562500e-01
     vertex -2.031250e-01  4.003266e-18  2.216283e-01
   endloop
 endfacet
 facet normal -1.950650e-17  1.000000e+00 -6.123234e-17
   outer loop
     vertex  2.109375e-01  2.535402e-17  1.562500e-01
     vertex  1.603618e-02  2.155217e-17  1.562500e-01
     vertex  2.109375e-01  2.935728e-17  2.216283e-01
   endloop
 endfacet
 facet normal -6.123234e-17  1.000000e+00 -6.123234e-17
   outer loop
     vertex  1.603618e-02  2.417066e-18 -1.562500e-01
     vertex -2.343750e-02  0.000000e+00 -1.562500e-01
     vertex -2.343750e-02  1.913511e-17  1.562500e-01
   endloop
 endfacet
 facet normal -6.123234e-17  1.000000e+00 -6.123234e-17
   outer loop
     vertex  1.603618e-02  2.417066e-18 -1.562500e-01
     vertex -2.343750e-02  1.913511e-17  1.562500e-01
     vertex  1.603618e-02  2.155217e-17  1.562500e-01
   endloop
 endfacet
 facet normal -1.000000e+00 -6.013708e-17  6.661338e-17
   outer loop
     vertex -2.343750e-02  0.000000e+00 -1.562500e-01
     vertex -2.343750e-02 -7.500000e-01  1.562500e-01
     vertex -2.343750e-02  1.913511e-17  1.562500e-01
   endloop
 endfacet
 facet normal -1.000000e+00 -6.013708e-17  6.661338e-17
   outer loop
     vertex -2.343750e-02  0.000000e+00 -1.562500e-01
     vertex -2.343750e-02 -7.500000e-01 -1.562500e-01
     vertex -2.343750e-02 -7.500000e-01  1.562500e-01
   endloop
 endfacet
 facet normal  0.000000e+00 -1.000000e+00  0.000000e+00
   outer loop
     vertex -2.343750e-02 -7.500000e-01  1.562500e-01
     vertex -2.031250e-01 -7.500000e-01  2.216283e-01
     vertex -2.031250e-01 -7.500000e-01  1.562500e-01
   endloop
 endfacet
 facet normal  0.000000e+00 -1.000000e+00  0.000000e+00
   outer loop
     vertex  1.603618e-02 -7.500000e-01  1.562500e-01
     vertex -2.031250e-01 -7.500000e-01  2.216283e-01
     vertex -2.343750e-02 -7.500000e-01  1.562500e-01
   endloop
 endfacet
 facet normal -0.000000e+00 -1.000000e+00  0.000000e+00
   outer loop
     vertex  2.109375e-01 -7.500000e-01  2.216283e-01
     vertex -2.031250e-01 -7.500000e-01  2.216283e-01
     vertex  1.603618e-02 -7.500000e-01  1.562500e-01
   endloop
 endfacet
 facet normal  0.000000e+00 -1.000000e+00  0.000000e+00
   outer loop
     vertex  2.109375e-01 -7.500000e-01  1.562500e-01
     vertex  2.109375e-01 -7.500000e-01  2.216283e-01
     vertex  1.603618e-02 -7.500000e-01  1.562500e-01
   endloop
 endfacet
 facet normal  0.000000e+00 -1.000000e+00  0.000000e+00
   outer loop
     vertex  1.603618e-02 -7.500000e-01 -1.562500e-01
     vertex -2.343750e-02 -7.500000e-01  1.562500e-01
     vertex -2.343750e-02 -7.500000e-01 -1.562500e-01
   endloop
 endfacet
 facet normal  0.000000e+00 -1.000000e+00  0.000000e+00
   outer loop
     vertex  1.603618e-02 -7.500000e-01 -1.562500e-01
     vertex  1.603618e-02 -7.500000e-01  1.562500e-01
     vertex -2.343750e-02 -7.500000e-01  1.562500e-01
   endloop
 endfacet
 facet normal -1.000000e+00 -7.401487e-17  4.532104e-33
   outer loop
     vertex -2.031250e-01  0.000000e+00  1.562500e-01
     vertex -2.031250e-01 -7.500000e-01  2.216283e-01
     vertex -2.031250e-01  4.003266e-18  2.216283e-01
   endloop
 endfacet
 facet normal -1.000000e+00 -7.401487e-17  0.000000e+00
   outer loop
     vertex -2.031250e-01  0.000000e+00  1.562500e-01
     vertex -2.031250e-01 -7.500000e-01  1.562500e-01
     vertex -2.031250e-01 -7.500000e-01  2.216283e-01
   endloop
 endfacet
 facet normal  1.000000e+00  7.401487e-17 -4.532104e-33
   outer loop
     vertex  2.109375e-01  2.935728e-17  2.216283e-01
     vertex  2.109375e-01 -7.500000e-01  1.562500e-01
     vertex  2.109375e-01  2.535402e-17  1.562500e-01
   endloop
 endfacet
 facet normal  1.000000e+00  7.401487e-17  0.000000e+00
   outer loop
     vertex  2.109375e-01  2.935728e-17  2.216283e-01
     vertex  2.109375e-01 -7.500000e-01  2.216283e-01
     vertex  2.109375e-01 -7.500000e-01  1.562500e-01
   endloop
 endfacet
 facet normal  6.703233e-17  7.401487e-17  1.000000e+00
   outer loop
     vertex -2.031250e-01  4.003266e-18  2.216283e-01
     vertex  2.109375e-01 -7.500000e-01  2.216283e-01
     vertex  2.109375e-01  2.935728e-17  2.216283e-01
   endloop
 endfacet
 facet normal  6.703233e-17  7.401487e-17  1.000000e+00
   outer loop
     vertex -2.031250e-01  4.003266e-18  2.216283e-01
     vertex -2.031250e-01 -7.500000e-01  2.216283e-01
     vertex  2.109375e-01 -7.500000e-01  2.216283e-01
   endloop
 endfacet
 facet normal -1.424084e-16 -7.401487e-17 -1.000000e+00
   outer loop
     vertex  2.109375e-01  2.535402e-17  1.562500e-01
     vertex  1.603618e-02 -7.500000e-01  1.562500e-01
     vertex  1.603618e-02  2.155217e-17  1.562500e-01
   endloop
 endfacet
 facet normal -1.424084e-16 -7.401487e-17 -1.000000e+00
   outer loop
     vertex  2.109375e-01  2.535402e-17  1.562500e-01
     vertex  2.109375e-01 -7.500000e-01  1.562500e-01
     vertex  1.603618e-02 -7.500000e-01  1.562500e-01
   endloop
 endfacet
 facet normal  4.532104e-33 -7.401487e-17 -1.000000e+00
   outer loop
     vertex  1.603618e-02  2.417066e-18 -1.562500e-01
     vertex -2.343750e-02 -7.500000e-01 -1.562500e-01
     vertex -2.343750e-02  0.000000e+00 -1.562500e-01
   endloop
 endfacet
 facet normal  0.000000e+00 -7.401487e-17 -1.000000e+00
   outer loop
     vertex  1.603618e-02  2.417066e-18 -1.562500e-01
     vertex  1.603618e-02 -7.500000e-01 -1.562500e-01
     vertex -2.343750e-02 -7.500000e-01 -1.562500e-01
   endloop
 endfacet
 facet normal  1.000000e+00  6.013708e-17 -6.661338e-17
   outer loop
     vertex  1.603618e-02  2.155217e-17  1.562500e-01
     vertex  1.603618e-02 -7.500000e-01 -1.562500e-01
     vertex  1.603618e-02  2.417066e-18 -1.562500e-01
   endloop
 endfacet
 facet normal  1.000000e+00  6.013708e-17 -6.661338e-17
   outer loop
     vertex  1.603618e-02  2.155217e-17  1.562500e-01
     vertex  1.603618e-02 -7.500000e-01  1.562500e-01
     vertex  1.603618e-02 -7.500000e-01 -1.562500e-01
   endloop
 endfacet
 facet normal  1.000000e+00  7.401487e-17 -4.532104e-33
   outer loop
     vertex  2.109375e-01  2.935728e-17 -1.611842e-01
     vertex  2.109375e-01 -7.500000e-01 -2.265625e-01
     vertex  2.109375e-01  2.535402e-17 -2.265625e-01
   endloop
 endfacet
 facet normal  1.000000e+00  7.401487e-17  0.000000e+00
   outer loop
     vertex  2.109375e-01  2.935728e-17 -1.611842e-01
     vertex  2.109375e-01 -7.500000e-01 -1.611842e-01
     vertex  2.109375e-01 -7.500000e-01 -2.265625e-01
   endloop
 endfacet
 facet normal  6.703233e-17  7.401487e-17  1.000000e+00
   outer loop
     vertex -2.031250e-01  4.003266e-18 -1.611842e-01
     vertex  2.109375e-01 -7.500000e-01 -1.611842e-01
     vertex  2.109375e-01  2.935728e-17 -1.611842e-01
   endloop
 endfacet
 facet normal  6.703233e-17  7.401487e-17  1.000000e+00
   outer loop
     vertex -2.031250e-01  4.003266e-18 -1.611842e-01
     vertex -2.031250e-01 -7.500000e-01 -1.611842e-01
     vertex  2.109375e-01 -7.500000e-01 -1.611842e-01
   endloop
 endfacet
 facet normal -1.000000e+00 -7.401487e-17  4.532104e-33
   outer loop
     vertex -2.031250e-01  0.000000e+00 -2.265625e-01
     vertex -2.031250e-01 -7.500000e-01 -1.611842e-01
     vertex -2.031250e-01  4.003266e-18 -1.611842e-01
   endloop
 endfacet
 facet normal -1.000000e+00 -7.401487e-17  0.000000e+00
   outer loop
     vertex -2.031250e-01  0.000000e+00 -2.265625e-01
     vertex -2.031250e-01 -7.500000e-01 -2.265625e-01
     vertex -2.031250e-01 -7.500000e-01 -1.611842e-01
   endloop
 endfacet
 facet normal -6.703233e-17 -7.401487e-17 -1.000000e+00
   outer loop
     vertex  2.109375e-01  2.535402e-17 -2.265625e-01
     vertex -2.031250e-01 -7.500000e-01 -2.265625e-01
     vertex -2.031250e-01  0.000000e+00 -2.265625e-01
   endloop
 endfacet
 facet normal -6.703233e-17 -7.401487e-17 -1.000000e+00
   outer loop
     vertex  2.109375e-01  2.535402e-17 -2.265625e-01
     vertex  2.109375e-01 -7.500000e-01 -2.265625e-01
     vertex -2.031250e-01 -7.500000e-01 -2.265625e-01
   endloop
 endfacet
 facet normal -6.123234e-17  1.000000e+00 -6.123234e-17
   outer loop
     vertex -2.031250e-01  0.000000e+00 -2.265625e-01
     vertex  2.109375e-01  2.935728e-17 -1.611842e-01
     vertex  2.109375e-01  2.535402e-17 -2.265625e-01
   endloop
 endfacet
 facet normal -6.123234e-17  1.000000e+00 -6.123234e-17
   outer loop
     vertex -2.031250e-01  0.000000e+00 -2.265625e-01
     vertex -2.031250e-01  4.003266e-18 -1.611842e-01
     vertex  2.109375e-01  2.935728e-17 -1.611842e-01
   endloop
 endfacet
 facet normal  0.000000e+00 -1.000000e+00  0.000000e+00
   outer loop
     vertex -2.031250e-01 -7.500000e-01 -2.265625e-01
     vertex  2.109375e-01 -7.500000e-01 -2.265625e-01
     vertex  2.109375e-01 -7.500000e-01 -1.611842e-01
   endloop
 endfacet
 facet normal  0.000000e+00 -1.000000e+00  0.000000e+00
   outer loop
     vertex -2.031250e-01 -7.500000e-01 -2.265625e-01
     vertex  2.109375e-01 -7.500000e-01 -1.611842e-01
     vertex -2.031250e-01 -7.500000e-01 -1.611842e-01
   endloop
 endfacet
endsolid
