solid 
 facet normal -1.000000e+00  2.265153e-16  0.000000e+00
   outer loop
     vertex  1.026316e-01  4.029605e-02  3.906250e-02
     vertex  1.026316e-01  1.015625e-01  3.906250e-02
     vertex  1.026316e-01  1.015625e-01  0.000000e+00
   endloop
 endfacet
 facet normal -1.000000e+00 -3.443957e-16  9.425567e-18
   outer loop
     vertex  1.026316e-01 -1.069079e-03  0.000000e+00
     vertex  1.026316e-01  0.000000e+00  3.906250e-02
     vertex  1.026316e-01  4.029605e-02  3.906250e-02
   endloop
 endfacet
 facet normal -1.000000e+00  0.000000e+00  0.000000e+00
   outer loop
     vertex  1.026316e-01 -1.069079e-03  0.000000e+00
     vertex  1.026316e-01 -1.069079e-03  3.906250e-02
     vertex  1.026316e-01  0.000000e+00  3.906250e-02
   endloop
 endfacet
 facet normal -1.000000e+00  0.000000e+00 -3.552714e-16
   outer loop
     vertex  1.026316e-01 -1.069079e-03  0.000000e+00
     vertex  1.026316e-01  4.029605e-02  3.906250e-02
     vertex  1.026316e-01  1.015625e-01  0.000000e+00
   endloop
 endfacet
 facet normal  0.000000e+00 -1.000000e+00  0.000000e+00
   outer loop
     vertex  1.026316e-01  1.015625e-01  0.000000e+00
     vertex  0.000000e+00  1.015625e-01  3.906250e-02
     vertex  0.000000e+00  1.015625e-01  0.000000e+00
   endloop
 endfacet
 facet normal  0.000000e+00 -1.000000e+00  0.000000e+00
   outer loop
     vertex  1.026316e-01  1.015625e-01  0.000000e+00
     vertex  1.026316e-01  1.015625e-01  3.906250e-02
     vertex  0.000000e+00  1.015625e-01  3.906250e-02
   endloop
 endfacet
 facet normal  0.000000e+00 -1.000000e+00  0.000000e+00
   outer loop
     vertex  6.473684e-01 -1.069079e-03  0.000000e+00
     vertex  1.026316e-01 -1.069079e-03  3.906250e-02
     vertex  1.026316e-01 -1.069079e-03  0.000000e+00
   endloop
 endfacet
 facet normal  0.000000e+00 -1.000000e+00  0.000000e+00
   outer loop
     vertex  6.473684e-01 -1.069079e-03  0.000000e+00
     vertex  6.473684e-01 -1.069079e-03  3.906250e-02
     vertex  1.026316e-01 -1.069079e-03  3.906250e-02
   endloop
 endfacet
 facet normal -0.000000e+00  0.000000e+00 -1.000000e+00
   outer loop
     vertex  1.026316e-01  4.410362e-01  0.000000e+00
     vertex  0.000000e+00  1.015625e-01  0.000000e+00
     vertex  0.000000e+00  4.410362e-01  0.000000e+00
   endloop
 endfacet
 facet normal  0.000000e+00 -0.000000e+00 -1.000000e+00
   outer loop
     vertex  1.026316e-01  4.410362e-01  0.000000e+00
     vertex  1.026316e-01  1.015625e-01  0.000000e+00
     vertex  0.000000e+00  1.015625e-01  0.000000e+00
   endloop
 endfacet
 facet normal -0.000000e+00  0.000000e+00 -1.000000e+00
   outer loop
     vertex  6.473684e-01  1.015625e-01  0.000000e+00
     vertex  1.026316e-01 -1.069079e-03  0.000000e+00
     vertex  1.026316e-01  1.015625e-01  0.000000e+00
   endloop
 endfacet
 facet normal  0.000000e+00 -0.000000e+00 -1.000000e+00
   outer loop
     vertex  6.473684e-01  1.015625e-01  0.000000e+00
     vertex  6.473684e-01 -1.069079e-03  0.000000e+00
     vertex  1.026316e-01 -1.069079e-03  0.000000e+00
   endloop
 endfacet
 facet normal -0.000000e+00  0.000000e+00 -1.000000e+00
   outer loop
     vertex  6.473684e-01  4.410362e-01  0.000000e+00
     vertex  1.026316e-01  1.015625e-01  0.000000e+00
     vertex  1.026316e-01  4.410362e-01  0.000000e+00
   endloop
 endfacet
 facet normal  0.000000e+00 -0.000000e+00 -1.000000e+00
   outer loop
     vertex  6.473684e-01  4.410362e-01  0.000000e+00
     vertex  6.473684e-01  1.015625e-01  0.000000e+00
     vertex  1.026316e-01  1.015625e-01  0.000000e+00
   endloop
 endfacet
 facet normal -0.000000e+00  0.000000e+00 -1.000000e+00
   outer loop
     vertex  6.473684e-01  4.805099e-01  0.000000e+00
     vertex  1.026316e-01  4.410362e-01  0.000000e+00
     vertex  1.026316e-01  4.805099e-01  0.000000e+00
   endloop
 endfacet
 facet normal  0.000000e+00 -0.000000e+00 -1.000000e+00
   outer loop
     vertex  6.473684e-01  4.805099e-01  0.000000e+00
     vertex  6.473684e-01  4.410362e-01  0.000000e+00
     vertex  1.026316e-01  4.410362e-01  0.000000e+00
   endloop
 endfacet
 facet normal  0.000000e+00 -0.000000e+00 -1.000000e+00
   outer loop
     vertex  7.500000e-01  4.410362e-01  0.000000e+00
     vertex  7.500000e-01  1.015625e-01  0.000000e+00
     vertex  6.473684e-01  1.015625e-01  0.000000e+00
   endloop
 endfacet
 facet normal -0.000000e+00  0.000000e+00 -1.000000e+00
   outer loop
     vertex  7.500000e-01  4.410362e-01  0.000000e+00
     vertex  6.473684e-01  1.015625e-01  0.000000e+00
     vertex  6.473684e-01  4.410362e-01  0.000000e+00
   endloop
 endfacet
 facet normal  0.000000e+00  0.000000e+00  1.000000e+00
   outer loop
     vertex  1.015625e-01  3.984375e-01  3.906250e-02
     vertex  0.000000e+00  3.984375e-01  3.906250e-02
     vertex  0.000000e+00  1.015625e-01  3.906250e-02
   endloop
 endfacet
 facet normal  0.000000e+00  0.000000e+00  1.000000e+00
   outer loop
     vertex  1.015625e-01  3.984375e-01  3.906250e-02
     vertex  0.000000e+00  1.015625e-01  3.906250e-02
     vertex  1.026316e-01  1.015625e-01  3.906250e-02
   endloop
 endfacet
 facet normal  0.000000e+00  0.000000e+00  1.000000e+00
   outer loop
     vertex  1.015625e-01  4.369243e-01  3.906250e-02
     vertex  0.000000e+00  4.410362e-01  3.906250e-02
     vertex  0.000000e+00  4.369243e-01  3.906250e-02
   endloop
 endfacet
 facet normal  0.000000e+00  0.000000e+00  1.000000e+00
   outer loop
     vertex  1.026316e-01  4.410362e-01  3.906250e-02
     vertex  1.015625e-01  4.369243e-01  3.906250e-02
     vertex  1.015625e-01  3.984375e-01  3.906250e-02
   endloop
 endfacet
 facet normal  0.000000e+00  0.000000e+00  1.000000e+00
   outer loop
     vertex  1.026316e-01  4.410362e-01  3.906250e-02
     vertex  0.000000e+00  4.410362e-01  3.906250e-02
     vertex  1.015625e-01  4.369243e-01  3.906250e-02
   endloop
 endfacet
 facet normal  0.000000e+00  0.000000e+00  1.000000e+00
   outer loop
     vertex  6.473684e-01  1.015625e-01  3.906250e-02
     vertex  1.026316e-01  1.015625e-01  3.906250e-02
     vertex  1.026316e-01  4.029605e-02  3.906250e-02
   endloop
 endfacet
 facet normal  0.000000e+00  0.000000e+00  1.000000e+00
   outer loop
     vertex  6.473684e-01  1.015625e-01  3.906250e-02
     vertex  1.026316e-01  4.029605e-02  3.906250e-02
     vertex  6.473684e-01  4.029605e-02  3.906250e-02
   endloop
 endfacet
 facet normal  0.000000e+00  0.000000e+00  1.000000e+00
   outer loop
     vertex  6.484375e-01  3.984375e-01  3.906250e-02
     vertex  6.473684e-01  1.015625e-01  3.906250e-02
     vertex  7.500000e-01  1.015625e-01  3.906250e-02
   endloop
 endfacet
 facet normal  0.000000e+00  0.000000e+00  1.000000e+00
   outer loop
     vertex  6.484375e-01  3.984375e-01  3.906250e-02
     vertex  1.015625e-01  3.984375e-01  3.906250e-02
     vertex  1.026316e-01  1.015625e-01  3.906250e-02
   endloop
 endfacet
 facet normal  0.000000e+00  0.000000e+00  1.000000e+00
   outer loop
     vertex  6.484375e-01  3.984375e-01  3.906250e-02
     vertex  1.026316e-01  1.015625e-01  3.906250e-02
     vertex  6.473684e-01  1.015625e-01  3.906250e-02
   endloop
 endfacet
 facet normal  0.000000e+00  0.000000e+00  1.000000e+00
   outer loop
     vertex  6.473684e-01  4.410362e-01  3.906250e-02
     vertex  6.484375e-01  3.984375e-01  3.906250e-02
     vertex  6.484375e-01  4.369243e-01  3.906250e-02
   endloop
 endfacet
 facet normal  0.000000e+00  0.000000e+00  1.000000e+00
   outer loop
     vertex  6.473684e-01  4.410362e-01  3.906250e-02
     vertex  1.026316e-01  4.410362e-01  3.906250e-02
     vertex  1.015625e-01  3.984375e-01  3.906250e-02
   endloop
 endfacet
 facet normal  0.000000e+00  0.000000e+00  1.000000e+00
   outer loop
     vertex  6.473684e-01  4.410362e-01  3.906250e-02
     vertex  1.015625e-01  3.984375e-01  3.906250e-02
     vertex  6.484375e-01  3.984375e-01  3.906250e-02
   endloop
 endfacet
 facet normal  0.000000e+00  0.000000e+00  1.000000e+00
   outer loop
     vertex  6.473684e-01  4.805099e-01  3.906250e-02
     vertex  1.026316e-01  4.805099e-01  3.906250e-02
     vertex  1.026316e-01  4.410362e-01  3.906250e-02
   endloop
 endfacet
 facet normal  0.000000e+00  0.000000e+00  1.000000e+00
   outer loop
     vertex  6.473684e-01  4.805099e-01  3.906250e-02
     vertex  1.026316e-01  4.410362e-01  3.906250e-02
     vertex  6.473684e-01  4.410362e-01  3.906250e-02
   endloop
 endfacet
 facet normal  0.000000e+00  0.000000e+00  1.000000e+00
   outer loop
     vertex  7.500000e-01  3.984375e-01  3.906250e-02
     vertex  6.484375e-01  3.984375e-01  3.906250e-02
     vertex  7.500000e-01  1.015625e-01  3.906250e-02
   endloop
 endfacet
 facet normal  0.000000e+00  0.000000e+00  1.000000e+00
   outer loop
     vertex  7.500000e-01  4.410362e-01  3.906250e-02
     vertex  6.484375e-01  4.369243e-01  3.906250e-02
     vertex  7.500000e-01  4.369243e-01  3.906250e-02
   endloop
 endfacet
 facet normal  0.000000e+00  0.000000e+00  1.000000e+00
   outer loop
     vertex  7.500000e-01  4.410362e-01  3.906250e-02
     vertex  6.473684e-01  4.410362e-01  3.906250e-02
     vertex  6.484375e-01  4.369243e-01  3.906250e-02
   endloop
 endfacet
 facet normal  0.000000e+00 -0.000000e+00 -1.000000e+00
   outer loop
     vertex  1.026316e-01  4.029605e-02  3.906250e-02
     vertex  1.026316e-01  0.000000e+00  3.906250e-02
     vertex  1.015625e-01  0.000000e+00  3.906250e-02
   endloop
 endfacet
 facet normal -0.000000e+00  0.000000e+00 -1.000000e+00
   outer loop
     vertex  1.026316e-01  4.029605e-02  3.906250e-02
     vertex  1.015625e-01  0.000000e+00  3.906250e-02
     vertex  1.015625e-01  4.029605e-02  3.906250e-02
   endloop
 endfacet
 facet normal  0.000000e+00  0.000000e+00  1.000000e+00
   outer loop
     vertex  6.473684e-01  0.000000e+00  3.906250e-02
     vertex  1.026316e-01  0.000000e+00  3.906250e-02
     vertex  1.026316e-01 -1.069079e-03  3.906250e-02
   endloop
 endfacet
 facet normal  0.000000e+00  0.000000e+00  1.000000e+00
   outer loop
     vertex  6.473684e-01  0.000000e+00  3.906250e-02
     vertex  1.026316e-01 -1.069079e-03  3.906250e-02
     vertex  6.473684e-01 -1.069079e-03  3.906250e-02
   endloop
 endfacet
 facet normal -1.000000e+00  0.000000e+00  0.000000e+00
   outer loop
     vertex  0.000000e+00  4.410362e-01  0.000000e+00
     vertex  0.000000e+00  4.369243e-01  3.906250e-02
     vertex  0.000000e+00  4.410362e-01  3.906250e-02
   endloop
 endfacet
 facet normal -1.000000e+00  0.000000e+00  0.000000e+00
   outer loop
     vertex  0.000000e+00  3.984375e-01  3.906250e-02
     vertex  0.000000e+00  4.369243e-01  3.593750e-01
     vertex  0.000000e+00  4.369243e-01  3.906250e-02
   endloop
 endfacet
 facet normal -1.000000e+00  0.000000e+00  0.000000e+00
   outer loop
     vertex  0.000000e+00  3.984375e-01  3.906250e-02
     vertex  0.000000e+00  3.984375e-01  3.593750e-01
     vertex  0.000000e+00  4.369243e-01  3.593750e-01
   endloop
 endfacet
 facet normal -1.000000e+00  0.000000e+00  0.000000e+00
   outer loop
     vertex  0.000000e+00  3.984375e-01  3.906250e-02
     vertex  0.000000e+00  4.369243e-01  3.906250e-02
     vertex  0.000000e+00  4.410362e-01  0.000000e+00
   endloop
 endfacet
 facet normal -1.000000e+00  0.000000e+00  0.000000e+00
   outer loop
     vertex  0.000000e+00  1.015625e-01  0.000000e+00
     vertex  0.000000e+00  1.015625e-01  3.906250e-02
     vertex  0.000000e+00  3.984375e-01  3.906250e-02
   endloop
 endfacet
 facet normal -1.000000e+00  0.000000e+00  0.000000e+00
   outer loop
     vertex  0.000000e+00  1.015625e-01  0.000000e+00
     vertex  0.000000e+00  3.984375e-01  3.906250e-02
     vertex  0.000000e+00  4.410362e-01  0.000000e+00
   endloop
 endfacet
 facet normal  1.000000e+00  0.000000e+00  0.000000e+00
   outer loop
     vertex  6.473684e-01 -1.069079e-03  0.000000e+00
     vertex  6.473684e-01  0.000000e+00  3.906250e-02
     vertex  6.473684e-01 -1.069079e-03  3.906250e-02
   endloop
 endfacet
 facet normal  1.000000e+00  0.000000e+00  0.000000e+00
   outer loop
     vertex  6.473684e-01  4.029605e-02  3.906250e-02
     vertex  6.473684e-01  0.000000e+00  3.906250e-02
     vertex  6.473684e-01 -1.069079e-03  0.000000e+00
   endloop
 endfacet
 facet normal  1.000000e+00  0.000000e+00 -0.000000e+00
   outer loop
     vertex  6.473684e-01  1.015625e-01  0.000000e+00
     vertex  6.473684e-01  1.015625e-01  3.906250e-02
     vertex  6.473684e-01  4.029605e-02  3.906250e-02
   endloop
 endfacet
 facet normal  1.000000e+00  0.000000e+00  0.000000e+00
   outer loop
     vertex  6.473684e-01  1.015625e-01  0.000000e+00
     vertex  6.473684e-01  4.029605e-02  3.906250e-02
     vertex  6.473684e-01 -1.069079e-03  0.000000e+00
   endloop
 endfacet
 facet normal  0.000000e+00 -1.000000e+00  0.000000e+00
   outer loop
     vertex  7.500000e-01  1.015625e-01  0.000000e+00
     vertex  6.473684e-01  1.015625e-01  3.906250e-02
     vertex  6.473684e-01  1.015625e-01  0.000000e+00
   endloop
 endfacet
 facet normal  0.000000e+00 -1.000000e+00  0.000000e+00
   outer loop
     vertex  7.500000e-01  1.015625e-01  0.000000e+00
     vertex  7.500000e-01  1.015625e-01  3.906250e-02
     vertex  6.473684e-01  1.015625e-01  3.906250e-02
   endloop
 endfacet
 facet normal  1.000000e+00  0.000000e+00  0.000000e+00
   outer loop
     vertex  7.500000e-01  3.984375e-01  3.906250e-02
     vertex  7.500000e-01  1.015625e-01  3.906250e-02
     vertex  7.500000e-01  1.015625e-01  0.000000e+00
   endloop
 endfacet
 facet normal  1.000000e+00  0.000000e+00  0.000000e+00
   outer loop
     vertex  7.500000e-01  4.369243e-01  3.906250e-02
     vertex  7.500000e-01  3.984375e-01  3.593750e-01
     vertex  7.500000e-01  3.984375e-01  3.906250e-02
   endloop
 endfacet
 facet normal  1.000000e+00  0.000000e+00 -0.000000e+00
   outer loop
     vertex  7.500000e-01  4.369243e-01  3.906250e-02
     vertex  7.500000e-01  4.369243e-01  3.593750e-01
     vertex  7.500000e-01  3.984375e-01  3.593750e-01
   endloop
 endfacet
 facet normal  1.000000e+00  0.000000e+00 -0.000000e+00
   outer loop
     vertex  7.500000e-01  4.410362e-01  0.000000e+00
     vertex  7.500000e-01  4.410362e-01  3.906250e-02
     vertex  7.500000e-01  4.369243e-01  3.906250e-02
   endloop
 endfacet
 facet normal  1.000000e+00  0.000000e+00  0.000000e+00
   outer loop
     vertex  7.500000e-01  4.410362e-01  0.000000e+00
     vertex  7.500000e-01  4.369243e-01  3.906250e-02
     vertex  7.500000e-01  3.984375e-01  3.906250e-02
   endloop
 endfacet
 facet normal  1.000000e+00  0.000000e+00  0.000000e+00
   outer loop
     vertex  7.500000e-01  4.410362e-01  0.000000e+00
     vertex  7.500000e-01  3.984375e-01  3.906250e-02
     vertex  7.500000e-01  1.015625e-01  0.000000e+00
   endloop
 endfacet
 facet normal  0.000000e+00  1.000000e+00  0.000000e+00
   outer loop
     vertex  6.473684e-01  4.410362e-01  0.000000e+00
     vertex  7.500000e-01  4.410362e-01  3.906250e-02
     vertex  7.500000e-01  4.410362e-01  0.000000e+00
   endloop
 endfacet
 facet normal  0.000000e+00  1.000000e+00  0.000000e+00
   outer loop
     vertex  6.473684e-01  4.410362e-01  0.000000e+00
     vertex  6.473684e-01  4.410362e-01  3.906250e-02
     vertex  7.500000e-01  4.410362e-01  3.906250e-02
   endloop
 endfacet
 facet normal  1.000000e+00  0.000000e+00  0.000000e+00
   outer loop
     vertex  6.473684e-01  4.805099e-01  0.000000e+00
     vertex  6.473684e-01  4.410362e-01  3.906250e-02
     vertex  6.473684e-01  4.410362e-01  0.000000e+00
   endloop
 endfacet
 facet normal  1.000000e+00  0.000000e+00 -0.000000e+00
   outer loop
     vertex  6.473684e-01  4.805099e-01  0.000000e+00
     vertex  6.473684e-01  4.805099e-01  3.906250e-02
     vertex  6.473684e-01  4.410362e-01  3.906250e-02
   endloop
 endfacet
 facet normal  0.000000e+00  1.000000e+00  0.000000e+00
   outer loop
     vertex  1.026316e-01  4.805099e-01  0.000000e+00
     vertex  6.473684e-01  4.805099e-01  3.906250e-02
     vertex  6.473684e-01  4.805099e-01  0.000000e+00
   endloop
 endfacet
 facet normal  0.000000e+00  1.000000e+00  0.000000e+00
   outer loop
     vertex  1.026316e-01  4.805099e-01  0.000000e+00
     vertex  1.026316e-01  4.805099e-01  3.906250e-02
     vertex  6.473684e-01  4.805099e-01  3.906250e-02
   endloop
 endfacet
 facet normal -1.000000e+00  0.000000e+00  0.000000e+00
   outer loop
     vertex  1.026316e-01  4.410362e-01  0.000000e+00
     vertex  1.026316e-01  4.805099e-01  3.906250e-02
     vertex  1.026316e-01  4.805099e-01  0.000000e+00
   endloop
 endfacet
 facet normal -1.000000e+00  0.000000e+00  0.000000e+00
   outer loop
     vertex  1.026316e-01  4.410362e-01  0.000000e+00
     vertex  1.026316e-01  4.410362e-01  3.906250e-02
     vertex  1.026316e-01  4.805099e-01  3.906250e-02
   endloop
 endfacet
 facet normal  0.000000e+00  1.000000e+00  0.000000e+00
   outer loop
     vertex  0.000000e+00  4.410362e-01  0.000000e+00
     vertex  1.026316e-01  4.410362e-01  3.906250e-02
     vertex  1.026316e-01  4.410362e-01  0.000000e+00
   endloop
 endfacet
 facet normal  0.000000e+00  1.000000e+00  0.000000e+00
   outer loop
     vertex  0.000000e+00  4.410362e-01  0.000000e+00
     vertex  0.000000e+00  4.410362e-01  3.906250e-02
     vertex  1.026316e-01  4.410362e-01  3.906250e-02
   endloop
 endfacet
 facet normal  0.000000e+00 -1.000000e+00  0.000000e+00
   outer loop
     vertex  1.015625e-01  3.984375e-01  3.906250e-02
     vertex  0.000000e+00  3.984375e-01  3.593750e-01
     vertex  0.000000e+00  3.984375e-01  3.906250e-02
   endloop
 endfacet
 facet normal  0.000000e+00 -1.000000e+00  0.000000e+00
   outer loop
     vertex  1.015625e-01  3.984375e-01  3.906250e-02
     vertex  1.015625e-01  3.984375e-01  3.593750e-01
     vertex  0.000000e+00  3.984375e-01  3.593750e-01
   endloop
 endfacet
 facet normal  1.000000e+00  0.000000e+00  0.000000e+00
   outer loop
     vertex  1.015625e-01  4.369243e-01  3.906250e-02
     vertex  1.015625e-01  3.984375e-01  3.593750e-01
     vertex  1.015625e-01  3.984375e-01  3.906250e-02
   endloop
 endfacet
 facet normal  1.000000e+00  0.000000e+00 -0.000000e+00
   outer loop
     vertex  1.015625e-01  4.369243e-01  3.906250e-02
     vertex  1.015625e-01  4.369243e-01  3.593750e-01
     vertex  1.015625e-01  3.984375e-01  3.593750e-01
   endloop
 endfacet
 facet normal  0.000000e+00  1.000000e+00  0.000000e+00
   outer loop
     vertex  0.000000e+00  4.369243e-01  3.906250e-02
     vertex  1.015625e-01  4.369243e-01  3.593750e-01
     vertex  1.015625e-01  4.369243e-01  3.906250e-02
   endloop
 endfacet
 facet normal  0.000000e+00  1.000000e+00  0.000000e+00
   outer loop
     vertex  0.000000e+00  4.369243e-01  3.906250e-02
     vertex  0.000000e+00  4.369243e-01  3.593750e-01
     vertex  1.015625e-01  4.369243e-01  3.593750e-01
   endloop
 endfacet
 facet normal  0.000000e+00  1.000000e+00  0.000000e+00
   outer loop
     vertex  6.484375e-01  4.369243e-01  3.906250e-02
     vertex  7.500000e-01  4.369243e-01  3.593750e-01
     vertex  7.500000e-01  4.369243e-01  3.906250e-02
   endloop
 endfacet
 facet normal  0.000000e+00  1.000000e+00  0.000000e+00
   outer loop
     vertex  6.484375e-01  4.369243e-01  3.906250e-02
     vertex  6.484375e-01  4.369243e-01  3.593750e-01
     vertex  7.500000e-01  4.369243e-01  3.593750e-01
   endloop
 endfacet
 facet normal -1.000000e+00  0.000000e+00  0.000000e+00
   outer loop
     vertex  6.484375e-01  3.984375e-01  3.906250e-02
     vertex  6.484375e-01  4.369243e-01  3.593750e-01
     vertex  6.484375e-01  4.369243e-01  3.906250e-02
   endloop
 endfacet
 facet normal -1.000000e+00  0.000000e+00  0.000000e+00
   outer loop
     vertex  6.484375e-01  3.984375e-01  3.906250e-02
     vertex  6.484375e-01  3.984375e-01  3.593750e-01
     vertex  6.484375e-01  4.369243e-01  3.593750e-01
   endloop
 endfacet
 facet normal  0.000000e+00 -1.000000e+00  0.000000e+00
   outer loop
     vertex  7.500000e-01  3.984375e-01  3.906250e-02
     vertex  6.484375e-01  3.984375e-01  3.593750e-01
     vertex  6.484375e-01  3.984375e-01  3.906250e-02
   endloop
 endfacet
 facet normal  0.000000e+00 -1.000000e+00  0.000000e+00
   outer loop
     vertex  7.500000e-01  3.984375e-01  3.906250e-02
     vertex  7.500000e-01  3.984375e-01  3.593750e-01
     vertex  6.484375e-01  3.984375e-01  3.593750e-01
   endloop
 endfacet
 facet normal  0.000000e+00  1.000000e+00  0.000000e+00
   outer loop
     vertex  6.473684e-01  4.029605e-02  3.906250e-02
     vertex  6.484375e-01  4.029605e-02  3.593750e-01
     vertex  6.484375e-01  4.029605e-02  3.906250e-02
   endloop
 endfacet
 facet normal  0.000000e+00  1.000000e+00 -0.000000e+00
   outer loop
     vertex  1.026316e-01  4.029605e-02  3.906250e-02
     vertex  1.015625e-01  4.029605e-02  3.593750e-01
     vertex  6.484375e-01  4.029605e-02  3.593750e-01
   endloop
 endfacet
 facet normal  0.000000e+00  1.000000e+00  0.000000e+00
   outer loop
     vertex  1.026316e-01  4.029605e-02  3.906250e-02
     vertex  6.484375e-01  4.029605e-02  3.593750e-01
     vertex  6.473684e-01  4.029605e-02  3.906250e-02
   endloop
 endfacet
 facet normal  0.000000e+00  1.000000e+00  0.000000e+00
   outer loop
     vertex  1.015625e-01  4.029605e-02  3.906250e-02
     vertex  1.015625e-01  4.029605e-02  3.593750e-01
     vertex  1.026316e-01  4.029605e-02  3.906250e-02
   endloop
 endfacet
 facet normal  0.000000e+00 -1.000000e+00  0.000000e+00
   outer loop
     vertex  1.026316e-01  0.000000e+00  3.906250e-02
     vertex  1.015625e-01  0.000000e+00  3.593750e-01
     vertex  1.015625e-01  0.000000e+00  3.906250e-02
   endloop
 endfacet
 facet normal  0.000000e+00 -1.000000e+00  0.000000e+00
   outer loop
     vertex  6.473684e-01  0.000000e+00  3.906250e-02
     vertex  6.484375e-01  0.000000e+00  3.593750e-01
     vertex  1.015625e-01  0.000000e+00  3.593750e-01
   endloop
 endfacet
 facet normal  0.000000e+00 -1.000000e+00  0.000000e+00
   outer loop
     vertex  6.473684e-01  0.000000e+00  3.906250e-02
     vertex  1.015625e-01  0.000000e+00  3.593750e-01
     vertex  1.026316e-01  0.000000e+00  3.906250e-02
   endloop
 endfacet
 facet normal  0.000000e+00 -1.000000e+00  0.000000e+00
   outer loop
     vertex  6.484375e-01  0.000000e+00  3.906250e-02
     vertex  6.484375e-01  0.000000e+00  3.593750e-01
     vertex  6.473684e-01  0.000000e+00  3.906250e-02
   endloop
 endfacet
 facet normal -1.000000e+00  0.000000e+00  0.000000e+00
   outer loop
     vertex  1.015625e-01  0.000000e+00  3.906250e-02
     vertex  1.015625e-01  4.029605e-02  3.593750e-01
     vertex  1.015625e-01  4.029605e-02  3.906250e-02
   endloop
 endfacet
 facet normal -1.000000e+00  0.000000e+00  0.000000e+00
   outer loop
     vertex  1.015625e-01  0.000000e+00  3.906250e-02
     vertex  1.015625e-01  0.000000e+00  3.593750e-01
     vertex  1.015625e-01  4.029605e-02  3.593750e-01
   endloop
 endfacet
 facet normal  0.000000e+00  0.000000e+00  1.000000e+00
   outer loop
     vertex  1.015625e-01  4.369243e-01  3.593750e-01
     vertex  0.000000e+00  4.369243e-01  3.593750e-01
     vertex  0.000000e+00  3.984375e-01  3.593750e-01
   endloop
 endfacet
 facet normal  0.000000e+00  0.000000e+00  1.000000e+00
   outer loop
     vertex  1.015625e-01  4.369243e-01  3.593750e-01
     vertex  0.000000e+00  3.984375e-01  3.593750e-01
     vertex  1.015625e-01  3.984375e-01  3.593750e-01
   endloop
 endfacet
 facet normal  0.000000e+00 -0.000000e+00 -1.000000e+00
   outer loop
     vertex  6.484375e-01  4.029605e-02  3.906250e-02
     vertex  6.484375e-01  0.000000e+00  3.906250e-02
     vertex  6.473684e-01  0.000000e+00  3.906250e-02
   endloop
 endfacet
 facet normal -0.000000e+00  0.000000e+00 -1.000000e+00
   outer loop
     vertex  6.484375e-01  4.029605e-02  3.906250e-02
     vertex  6.473684e-01  0.000000e+00  3.906250e-02
     vertex  6.473684e-01  4.029605e-02  3.906250e-02
   endloop
 endfacet
 facet normal  0.000000e+00  0.000000e+00  1.000000e+00
   outer loop
     vertex  7.500000e-01  4.369243e-01  3.593750e-01
     vertex  6.484375e-01  4.369243e-01  3.593750e-01
     vertex  6.484375e-01  3.984375e-01  3.593750e-01
   endloop
 endfacet
 facet normal  0.000000e+00  0.000000e+00  1.000000e+00
   outer loop
     vertex  7.500000e-01  4.369243e-01  3.593750e-01
     vertex  6.484375e-01  3.984375e-01  3.593750e-01
     vertex  7.500000e-01  3.984375e-01  3.593750e-01
   endloop
 endfacet
 facet normal  1.000000e+00  0.000000e+00  0.000000e+00
   outer loop
     vertex  6.484375e-01  4.029605e-02  3.906250e-02
     vertex  6.484375e-01  0.000000e+00  3.593750e-01
     vertex  6.484375e-01  0.000000e+00  3.906250e-02
   endloop
 endfacet
 facet normal  1.000000e+00  0.000000e+00 -0.000000e+00
   outer loop
     vertex  6.484375e-01  4.029605e-02  3.906250e-02
     vertex  6.484375e-01  4.029605e-02  3.593750e-01
     vertex  6.484375e-01  0.000000e+00  3.593750e-01
   endloop
 endfacet
 facet normal  0.000000e+00  0.000000e+00  1.000000e+00
   outer loop
     vertex  6.484375e-01  4.029605e-02  3.593750e-01
     vertex  1.015625e-01  4.029605e-02  3.593750e-01
     vertex  1.015625e-01  0.000000e+00  3.593750e-01
   endloop
 endfacet
 facet normal  0.000000e+00  0.000000e+00  1.000000e+00
   outer loop
     vertex  6.484375e-01  4.029605e-02  3.593750e-01
     vertex  1.015625e-01  0.000000e+00  3.593750e-01
     vertex  6.484375e-01  0.000000e+00  3.593750e-01
   endloop
 endfacet
endsolid
