<svg xmlns="http://www.w3.org/2000/svg" width="120" height="48" fill="none"><path fill="#ffffff" d="M48 0H0v48h48V0Z"/><path fill="#231C2B" fill-rule="evenodd" d="M28.952 14.095a4.93 4.93 0 0 1-.6 2.367l2.738 5.83a13.845 13.845 0 0 1-4.018 1.62l-2.311-4.922a4.992 4.992 0 0 1-1.759-.043l-3.295 7.015c5.279 1.417 11.14.12 15.352-3.89a4.79 4.79 0 0 0 2.528 3.048 20.052 20.052 0 0 1-13.667 5.35c-1.996 0-3.991-.295-5.915-.884l-1.19 2.531h.001l-1.595 3.396-3.954 3.33.038-5.168 1.595-3.396 1.128-2.4a20.066 20.066 0 0 1-4.328-3.29l2.796-2.796a16.1 16.1 0 0 0 3.219 2.496l3.8-8.09a4.952 4.952 0 1 1 9.437-2.103ZM24 15.934a1.892 1.892 0 1 0 0-3.785 1.892 1.892 0 0 0 0 3.785Z" clip-rule="evenodd"/><path fill="#231C2B" d="m30.93 32.117-.003.002-.213-.455c1.367-.433 2.7-1 3.978-1.703l.15.318 1.595 3.396.043 5.169-3.955-3.33-1.594-3.397ZM41.855 20.83a2.19 2.19 0 1 1-4.38 0 2.19 2.19 0 0 1 4.38 0Z"/><path fill="#231C2B" fill-rule="evenodd" d="M62.775 13.5h4.05v16.875h4.925l1.825 4.05h-10.8V13.5ZM90.45 25.65c0-5.012-3.823-8.775-8.773-8.775h-.004c-4.983 0-8.773 3.763-8.773 8.775 0 5.012 3.892 8.775 9.032 8.775 3.438 0 6.296-1.69 7.808-4.307l-3.887-1.115c-.9 1.087-2.315 1.755-3.92 1.755-2.38 0-4.273-1.501-4.886-3.639H90.32c.065-.479.13-.99.13-1.47Zm-4.147-1.626H77.08c.612-2.073 2.445-3.478 4.532-3.478 2.218 0 4.046 1.405 4.69 3.478Zm23.047 1.626c0 5.012-3.789 8.775-8.791 8.775-5.002 0-8.759-3.763-8.759-8.775 0-5.012 3.757-8.775 8.759-8.775 5.002 0 8.791 3.763 8.791 8.775Zm-8.791 4.786c2.644 0 4.648-2.073 4.648-4.786 0-2.713-2.004-4.786-4.648-4.786-2.644 0-4.648 2.073-4.648 4.786 0 2.713 2.036 4.786 4.648 4.786Zm10.104-13.247v.685h.96v2.697h.741v-2.697h.96v-.685h-2.661Zm2.967 3.382h.718v-.946c0-.37-.005-.654-.046-.905l.713 1.851h.677l.718-1.851c-.037.251-.037.411-.037 1.143v.708h.718V17.19h-.727l-1.01 2.523-1.006-2.523h-.718v3.382Z" clip-rule="evenodd"/></svg>